<?xml version="1.0" encoding="utf-8"?>
<!-- Generator: Adobe Illustrator 28.4.1, SVG Export Plug-In . SVG Version: 6.00 Build 0)  -->
<svg version="1.1" id="Livello_1" xmlns="http://www.w3.org/2000/svg" xmlns:xlink="http://www.w3.org/1999/xlink" x="0px" y="0px"
	 viewBox="0 0 595.3 841.9" style="enable-background:new 0 0 595.3 841.9;" xml:space="preserve">
<style type="text/css">
	.st0{fill:#811414;}
	.st1{clip-path:url(#SVGID_00000122705295553086879270000002483473853331715764_);fill:#FFFFFF;}
	.st2{fill:#FFFFFF;}
	.st3{fill:#811414;stroke:#FFFFFF;stroke-miterlimit:10;}
	
		.st4{clip-path:url(#SVGID_00000066480278941667166390000016065237482331249797_);fill:#FFFFFF;stroke:#FFFFFF;stroke-miterlimit:10;}
	.st5{fill:none;stroke:#000000;stroke-miterlimit:10;}
</style>
<rect y="376" width="595.3" height="465.9"/>
<g>
	<path class="st0" d="M433.3,588.3c0,83.8-67.9,151.7-151.7,151.7c-83.8,0-151.7-67.9-151.7-151.7s67.9-151.7,151.7-151.7
		C365.4,436.7,433.3,504.6,433.3,588.3"/>
	<g>
		<defs>
			<path id="SVGID_1_" d="M129.9,588.8c0,83.8,67.9,151.7,151.7,151.7c83.8,0,151.7-67.9,151.7-151.7s-67.9-151.7-151.7-151.7
				C197.8,437.2,129.9,505.1,129.9,588.8"/>
		</defs>
		<clipPath id="SVGID_00000057141302437031711980000017164301294207729039_">
			<use xlink:href="#SVGID_1_"  style="overflow:visible;"/>
		</clipPath>
		<path style="clip-path:url(#SVGID_00000057141302437031711980000017164301294207729039_);fill:#FFFFFF;" d="M134.9,701.1l5.4-2.2
			v-5.4l-0.9-0.7v-0.7h2.9l1-1h1.7v0.7h3v1.2l-0.6,0.6v5.1l8,1.8v0.8h-1.1v7.8h4.9v-1.5h5.1v1.5h2.7v-1.8l-2-1l10.2-2.9l7.7,3.2h1.5
			c0,0-0.5-2.6,3.3-2.1c3.8,0.5,3.7,2.3,3.7,2.3s7.6-0.1,7.9,0.6c0.3,0.7,0.1,2.2,1,2.2h3.3v-21.3c0,0-2.1-3.1-2.3-6.2
			c-0.2-3.1-0.1-4.9-0.1-4.9h-3l-1.4-1.7l19.1-7.5l0.3-9.4l3.5-1.3V654h0.9c0,0-0.2-1.9,0.8-1.9c1,0,1,1.6,1,1.6h1.4v3.5l4.4,1.3
			v8.4l19.3,6.9v0.9l-3.6,1.4v5.2l-2.3,6v8.9h5.1l1.4-0.9v-2.4h1.4v0.8l3.2-1.8l6.3,3.9c0,0,6.4-4.6,7.4-4.9
			c0.8-0.2,11.9-0.7,11.9-0.7l0.7,1.1h7.3v-2.4h4.9l0.5,1.9h6.7l1.3,1.4v-12l6.6-3.3l7.2,3.8v10.7l0.1,1.1c0.6,0.2,5.3,0.2,5.3,0.2
			l3.5,0l4,3.2l6.1,3.1v-4.7c0,0-1.5,0.5-1.6-0.8c-0.1-1.5,1.6-1.4,1.6-1.4s-0.2-3.9,0-5.4c0.1-0.8,1.5-2.4,1.7-3.4
			c0.3-1.1,0.7-3.5,0.7-3.5s0.5-0.1,0.9-0.1c0.4,0,0.3,2.3,0.6,3.7c0.4,2.3,1.9,2.6,2.1,4.3c0.2,1.7,0.2,4.4,0.2,4.4s1-0.2,1.2,0.8
			c0.3,1.7-1.2,1.5-1.2,1.5l0.2,4.6l14.5,0v-11.7l4.9-2.8h11.2v4h15v3.6l-1.1,1.1v1.7h19.4v-10.1l6.9-2.4v-6.4h-2.4v-1.2l8-3.4h6.8
			l5.5,3.4v1.9h-1.3v7.8l1.8,0.3c1.8,0.3,0.9,2.1,0.9,2.1h9.8l0.3,4.1h5.9l-0.3,7.2l0.9-0.2l4.5-20.1h5l1.5,23.2l2.8,1.1
			c0,0,5.7-41.2,6.5-44.8c0.3-1.3,3.2-0.7,5-0.7c1.9,0,2,4.2,2,7.2c0,2.7,8.1,36.9,9.4,42.3v2.9v10.8H134.9V701.1z"/>
		
			<rect x="191.5" y="716.4" style="clip-path:url(#SVGID_00000057141302437031711980000017164301294207729039_);fill:#FFFFFF;" width="188.9" height="37.5"/>
	</g>
</g>
<g>
	<path class="st2" d="M267.9,554.6c0,3.9-1.7,7-5,9.1c-2.8,1.9-6.3,2.8-10.4,2.8H247v9.4c0,2.7,0.4,4.4,1.1,5.3
		c0.9,1.1,2.6,1.6,5.2,1.6l-0.3,1.5c-0.9,0-2.3-0.1-4.1-0.3c-1.9-0.2-3.3-0.3-4.3-0.3c-1.1,0-2.7,0.1-4.9,0.3
		c-2.2,0.2-3.9,0.3-5.1,0.3v-1.5c2,0,3.5-0.2,4.3-0.7c1.1-0.7,1.6-2,1.6-4V549c0-1.8-0.6-2.9-1.7-3.5c-0.6-0.3-2.1-0.5-4.2-0.7v-1.2
		c0.9,0,2.1,0,3.7,0.1c1.6,0.1,2.8,0.1,3.5,0.1c1,0,2.5,0,4.5-0.1c2-0.1,3.5-0.1,4.4-0.1c4.6,0,8.3,0.7,11.3,2.1
		C265.9,547.6,267.9,550.6,267.9,554.6 M260.9,555.2c0-3.3-1.1-5.8-3.4-7.6c-2-1.6-4.8-2.4-8.2-2.4H247v19.6h4.5
		c2.9,0,5.2-0.9,6.9-2.6C260.1,560.5,260.9,558.2,260.9,555.2"/>
	<path class="st2" d="M303,584.4c-3.6-0.3-6.5-0.5-8.6-0.5c-1.8,0-4.7,0.2-8.6,0.5v-1.5c3-0.2,4.5-1,4.5-2.5c0-0.7-0.3-1.6-0.8-2.7
		l-3.2-9.1h-15.5l-2.8,7.1c-0.6,1.6-0.9,2.9-0.9,3.8c0,2.2,2,3.3,6.1,3.3v1.5c-4.6-0.3-7.5-0.5-8.6-0.5c-1.3,0-3.8,0.2-7.4,0.5v-1.5
		c2.1,0,3.7-0.6,4.8-1.8c0.8-0.9,1.7-2.5,2.6-4.8l10.8-28.6c-0.5-1.6-2.4-2.5-5.4-2.7v-1.5c2.5,0.3,5.8,0.5,10.1,0.5
		c5,0,8.2-0.2,9.9-0.5v1.5c-3.2,0-5.1,1.1-5.7,3.2l12.1,30.3c0.6,1.6,1.5,2.7,2.6,3.4c0.9,0.6,2.3,0.9,4.1,1.1V584.4z M285.1,566.2
		l-7.2-17.8l-6.4,17.8H285.1z"/>
	<path class="st2" d="M342,575.3l-2.5,9.1l-21.4-0.5c-1,0-5.4,0.2-13.3,0.5l-0.3-1.7c2.7,0,4.4-0.4,5.2-1.2c0.8-0.8,1.2-2.4,1.2-4.9
		v-27.6c0-1.7-0.6-2.9-1.7-3.5c-0.6-0.3-2-0.5-4.1-0.7v-1.2c1.1,0,2.9,0.1,5.3,0.3c2.4,0.2,4.2,0.3,5.3,0.3c0.8,0,2.1-0.1,3.8-0.3
		c1.7-0.2,3-0.3,3.8-0.3v1.2c-2.4,0.1-4,0.6-4.8,1.4c-0.8,0.8-1.1,2.5-1.1,5v24.7c0,2.6,0.8,4.3,2.3,5.2c1.2,0.6,3.2,1,6,1
		c4.3,0,7.3-0.3,8.9-0.8c2.8-1,4.7-3.1,5.7-6.3L342,575.3z"/>
	<path class="st2" d="M412.1,562.8c0.3,6.5-2,11.9-6.9,16.3c-4.6,4.1-10.1,6.1-16.5,6.1c-6.4,0.1-12-1.7-16.8-5.6
		c-5.1-4.1-7.6-9.4-7.6-15.8c0-6.2,2.4-11.3,7.3-15.3c4.5-3.7,9.9-5.7,16.1-5.8c6.2-0.1,11.6,1.6,16.4,5.2
		C409.1,551.8,411.7,556.8,412.1,562.8 M402.1,553.4c-1.4-2.5-3.6-4.5-6.6-6c-2.8-1.4-5.7-2.2-8.8-2.2c-4.6,0-8.3,1.7-11.3,5.2
		c-2.8,3.3-4.2,7.3-4.2,11.9c0,5.5,1.7,10.2,5.2,14.3c3.6,4.3,8.1,6.4,13.5,6.4c5,0,8.9-1.8,11.8-5.3c2.6-3.2,3.9-7.2,3.9-12
		C405.6,561.3,404.5,557.2,402.1,553.4 M391.4,564.3l-2.7,2.8l-0.5,0l-2.8-2.8c0-0.1-0.1-0.2-0.1-0.3c0,0,0.1-0.1,0.1-0.2l2.8-2.8
		c0.1-0.1,0.2-0.2,0.3-0.2c0,0,0.1,0.1,0.3,0.2l2.7,2.8c0.1,0.1,0.2,0.2,0.2,0.2C391.6,564.1,391.5,564.2,391.4,564.3"/>
	<path class="st2" d="M171.7,601.7c0,3.3-1.4,5.7-4.2,7.4c-2.3,1.3-5.2,2-8.7,2c-0.4,0-1,0-1.7-0.1c-0.8,0-1.3-0.1-1.7-0.1
		c-0.5,0-1.2,0-2.1,0.1s-1.6,0.1-2.1,0.1v-0.7c1,0,1.7-0.1,2-0.3c0.4-0.2,0.7-0.8,0.7-1.8v-13.1c0-0.8-0.3-1.3-0.8-1.6
		c-0.3-0.1-0.9-0.2-1.9-0.3v-0.7c0.6,0.1,2.1,0.1,4.8,0.1c0.4,0,0.9,0,1.4-0.1c0.5,0,0.8-0.1,1-0.1c3.6,0,6.5,0.6,8.9,1.8
		C170.2,596,171.7,598.5,171.7,601.7 M168.5,602c0-2.9-1.1-5-3.2-6.5c-1.8-1.3-4.3-2-7.2-2h-1.4v13.2c0,1.3,0.2,2.2,0.5,2.6
		c0.4,0.5,1.2,0.8,2.4,0.8c2.6,0,4.7-0.7,6.3-2C167.7,606.6,168.5,604.6,168.5,602"/>
	<path class="st2" d="M188.7,607c-0.8,1.2-1.2,2.5-1.3,4c-0.9,0-2.1,0-3.6-0.1c-1.5,0-2.4-0.1-3-0.1l-3.4-0.1c-1.6,0-3.4,0-5.5,0.1
		v-0.7c1,0,1.6-0.1,2-0.3c0.5-0.3,0.7-0.9,0.7-1.8v-12.8c0-0.9-0.3-1.5-0.8-1.8c-0.4-0.2-1-0.3-1.9-0.3v-0.7c2.1,0.1,4,0.2,5.5,0.1
		h3.4c0.5,0,1.5,0,3-0.1c1.5,0,2.6-0.1,3.6-0.1c0.1,1.5,0.6,2.8,1.3,3.9l-0.8,0.2c-0.6-1.3-1.4-2.2-2.5-2.7
		c-0.8-0.3-2.1-0.5-3.7-0.5c-1.6,0-2.6,0.1-3,0.2c-0.9,0.3-1.3,1.1-1.3,2.4v4.7h3.8l0.8-0.8c0-0.1,0.1-0.1,0.1-0.1
		c0,0,0.1,0,0.1,0.1l1.2,1.2c0.1,0.1,0.1,0.1,0.1,0.1c0,0,0,0.1-0.1,0.1l-1.2,1.2l-0.2,0l-0.8-0.8h-3.8v5.5c0,1.3,0.4,2,1.3,2.3
		c0.4,0.1,1.4,0.2,3,0.2c1.7,0,2.9-0.2,3.7-0.5c1.1-0.5,1.9-1.4,2.5-2.7L188.7,607z"/>
	<path class="st2" d="M205.4,606.9l-1.1,4.1l-9.6-0.2c-0.4,0-2.4,0.1-6,0.2l-0.1-0.8c1.2,0,2-0.2,2.3-0.5c0.4-0.4,0.5-1.1,0.5-2.2
		v-12.4c0-0.8-0.3-1.3-0.8-1.6c-0.3-0.1-0.9-0.2-1.9-0.3v-0.6c0.5,0,1.3,0,2.4,0.1c1.1,0.1,1.9,0.1,2.4,0.1c0.4,0,0.9,0,1.7-0.1
		c0.8-0.1,1.3-0.1,1.7-0.1v0.6c-1.1,0.1-1.8,0.3-2.1,0.6c-0.3,0.4-0.5,1.1-0.5,2.2v11.1c0,1.2,0.3,1.9,1,2.3
		c0.5,0.3,1.4,0.4,2.7,0.4c1.9,0,3.3-0.1,4-0.4c1.3-0.4,2.1-1.4,2.6-2.8L205.4,606.9z"/>
	<path class="st2" d="M222,606.9l-1.1,4.1l-9.6-0.2c-0.4,0-2.4,0.1-6,0.2l-0.1-0.8c1.2,0,2-0.2,2.3-0.5c0.4-0.4,0.5-1.1,0.5-2.2
		v-12.4c0-0.8-0.3-1.3-0.8-1.6c-0.3-0.1-0.9-0.2-1.9-0.3v-0.6c0.5,0,1.3,0,2.4,0.1c1.1,0.1,1.9,0.1,2.4,0.1c0.4,0,0.9,0,1.7-0.1
		c0.8-0.1,1.3-0.1,1.7-0.1v0.6c-1.1,0.1-1.8,0.3-2.1,0.6c-0.3,0.4-0.5,1.1-0.5,2.2v11.1c0,1.2,0.3,1.9,1,2.3
		c0.5,0.3,1.4,0.4,2.7,0.4c1.9,0,3.3-0.1,4-0.4c1.3-0.4,2.1-1.4,2.6-2.8L222,606.9z"/>
	<path class="st2" d="M226.4,594.4c-0.6,2-1.6,4.6-2.3,5.8l-1.4,0.2c0.5-1.4,1.2-4,1.4-5.7L226.4,594.4z"/>
	<path class="st2" d="M253.2,611c-2-0.2-3.6-0.3-4.8-0.3c-1,0-2.6,0.1-4.8,0.3v-0.8c1.7-0.1,2.5-0.6,2.5-1.4c0-0.4-0.2-0.9-0.5-1.5
		l-1.8-5.1h-8.7l-1.5,4c-0.3,0.9-0.5,1.6-0.5,2.1c0,1.2,1.1,1.9,3.4,1.9v0.8c-2.6-0.2-4.2-0.3-4.8-0.3c-0.7,0-2.1,0.1-4.2,0.3v-0.8
		c1.2,0,2-0.3,2.7-1c0.5-0.5,1-1.4,1.5-2.7l6.1-16c-0.3-0.9-1.3-1.4-3-1.5v-0.8c1.4,0.2,3.3,0.3,5.7,0.3c2.8,0,4.6-0.1,5.5-0.3v0.8
		c-1.8,0-2.9,0.6-3.2,1.8l6.8,17c0.4,0.9,0.8,1.5,1.4,1.9c0.5,0.3,1.3,0.5,2.3,0.6V611z M243.1,600.8l-4-10l-3.6,10H243.1z"/>
	<path class="st2" d="M282.1,611c-0.6,0-1.5,0-2.8-0.1c-1.3-0.1-2.2-0.1-2.9-0.1c-0.6,0-1.6,0-3,0.1c-1.3,0.1-2.3,0.1-3,0.1v-0.8
		c1.7,0,2.8-0.3,3.2-0.9c0.4-0.5,0.6-1.6,0.6-3.4v-15.8l-13.1,4.6v11.2c0,1.7,0.3,2.9,0.8,3.4c0.5,0.6,1.6,0.8,3.2,0.8v0.8
		c-0.6,0-1.6,0-2.9-0.1c-1.3-0.1-2.3-0.1-3-0.1c-0.6,0-1.5,0-2.8,0.1c-1.3,0.1-2.2,0.1-2.9,0.1v-0.8c2.8,0,4.2-1.8,4.2-5.4v-12.4
		c0-1.3-0.2-2.2-0.5-2.6c-0.4-0.5-1.2-0.8-2.4-0.8v-0.8l6.4,0.1v4.6l13-4.7c0.2,0,0.6,0,1.1,0.1c0.5,0.1,0.9,0.1,1.1,0.1
		c0.3,0.1,1.9,0,4.6-0.1v0.8c-1.3,0-2.1,0.2-2.5,0.7c-0.4,0.5-0.6,1.4-0.6,2.7v12.4c0,3.6,1.4,5.4,4.2,5.4V611z"/>
	<path class="st2" d="M310.6,602c-1.4,0-2.3,0.2-2.7,0.7c-0.4,0.5-0.7,1.4-0.7,2.8v2.9l0.7,0.5v0.7c-3.6,1.2-7.1,1.8-10.3,1.8
		c-4,0-7.2-1-9.8-2.9c-2.8-2.1-4.3-5.1-4.3-9c0-3.7,1.5-6.6,4.6-8.9c2.8-2,6-3.1,9.8-3.1c2.6,0,5.7,0.6,9.5,1.7l0.5,4.6h-0.8
		c-0.4-1.9-1.5-3.2-3.3-4.2c-1.5-0.8-3.3-1.1-5.4-1.1c-3.2,0-5.7,1-7.7,3c-2,2-3,4.6-3,7.8c0,3.1,1,5.7,3.1,7.8
		c2.1,2.1,4.6,3.2,7.7,3.2c2,0,3.8-0.4,5.2-1.3v-4.9c0-1-0.3-1.6-1-1.9c-0.3-0.1-1.1-0.2-2.3-0.3v-0.8c1.6,0.1,3,0.1,4.1,0.2
		c0.9,0.1,1.3,0.1,1.1,0.1c0.1,0,0.6,0,1.6-0.1c1.2-0.1,2.4-0.1,3.6-0.2V602z"/>
	<path class="st2" d="M328.9,606c-1,1.5-1.5,3.2-1.7,5c-1.1,0-2.6,0-4.4-0.1c-1.8,0-3.1-0.1-3.7-0.1l-4.3-0.1c-2-0.1-4.3,0-6.9,0.1
		V610c1.2,0,2-0.1,2.4-0.4c0.6-0.4,0.9-1.1,0.9-2.2v-15.9c0-1.1-0.3-1.8-0.9-2.2c-0.4-0.3-1.2-0.4-2.4-0.4v-0.8
		c2.6,0.2,4.9,0.2,6.9,0.1h4.3c0.7,0,1.9,0,3.7-0.1c1.8-0.1,3.3-0.1,4.4-0.1c0.1,1.9,0.7,3.5,1.7,4.8l-1,0.3
		c-0.7-1.6-1.7-2.8-3.1-3.4c-1-0.4-2.6-0.6-4.6-0.6c-1.9,0-3.2,0.1-3.7,0.3c-1.1,0.4-1.7,1.4-1.7,3v5.8h4.7l1-1
		c0.1-0.1,0.1-0.1,0.1-0.1c0,0,0.1,0.1,0.1,0.1l1.5,1.5c0.1,0.1,0.1,0.1,0.1,0.1c0,0-0.1,0.1-0.1,0.1l-1.5,1.5l-0.3,0l-1-1h-4.7v6.9
		c0,1.6,0.6,2.5,1.7,2.9c0.5,0.2,1.7,0.3,3.7,0.3c2.1,0,3.7-0.2,4.6-0.6c1.4-0.6,2.4-1.7,3.1-3.4L328.9,606z"/>
	<path class="st2" d="M349.7,605.9l-1.4,5.1l-12-0.3c-0.6,0-3,0.1-7.5,0.3l-0.1-1c1.5,0,2.5-0.2,2.9-0.7c0.5-0.4,0.7-1.4,0.7-2.8
		v-15.5c0-1-0.3-1.6-1-2c-0.4-0.2-1.1-0.3-2.3-0.4v-0.7c0.6,0,1.6,0.1,3,0.1c1.3,0.1,2.3,0.1,3,0.1c0.5,0,1.2-0.1,2.1-0.1
		c1-0.1,1.7-0.1,2.1-0.1v0.7c-1.4,0.1-2.2,0.3-2.7,0.8c-0.4,0.5-0.6,1.4-0.6,2.8v13.8c0,1.5,0.4,2.4,1.3,2.9
		c0.6,0.4,1.8,0.5,3.4,0.5c2.4,0,4.1-0.2,5-0.5c1.6-0.5,2.7-1.7,3.2-3.6L349.7,605.9z"/>
	<path class="st2" d="M360.7,611c-0.5,0-1.3,0-2.3-0.1c-1-0.1-1.9-0.1-2.4-0.1c-0.6,0-1.5,0-2.7,0.1c-1.2,0.1-2.2,0.1-2.8,0.1v-0.8
		c1.1,0,1.9-0.1,2.4-0.4c0.6-0.4,0.9-1.1,0.9-2.2v-16.4c0-1-0.3-1.7-1-2c-0.4-0.2-1.1-0.3-2.3-0.4v-0.7c2.2,0.1,3.9,0.1,5.1,0.1
		c1.1,0,2.8,0,5.2-0.1v0.7c-1.3,0.1-2.2,0.4-2.7,0.8c-0.4,0.5-0.7,1.4-0.7,2.8v13.9c0,1.5,0.2,2.5,0.5,3c0.4,0.6,1.4,0.9,2.8,0.9
		V611z"/>
	<path class="st2" d="M386.1,605l-1,4.8c-2.7,1.1-5.5,1.7-8.7,1.7c-3.8,0-7.1-1-9.8-3c-3-2.2-4.4-5.1-4.4-8.9c0-3.7,1.5-6.6,4.6-8.9
		c2.8-2,6.1-3.1,10-3.1c2.7,0,5.6,0.6,8.7,1.7c0.2,1.6,0.3,3.2,0.4,4.8h-0.8c-1-3.5-3.6-5.3-7.9-5.3c-3,0-5.6,0.9-7.7,2.7
		c-2.2,1.9-3.2,4.3-3.2,7.3c0,3.1,1.1,5.8,3.2,8.1c2.2,2.3,4.8,3.5,8,3.5c1.9,0,3.6-0.5,4.9-1.4c1.5-1,2.4-2.4,2.8-4.2L386.1,605z"
		/>
	<path class="st2" d="M412.1,611c-2-0.2-3.6-0.3-4.8-0.3c-1,0-2.6,0.1-4.8,0.3v-0.8c1.7-0.1,2.5-0.6,2.5-1.4c0-0.4-0.2-0.9-0.5-1.5
		l-1.8-5.1H394l-1.5,4c-0.3,0.9-0.5,1.6-0.5,2.1c0,1.2,1.1,1.9,3.4,1.9v0.8c-2.6-0.2-4.2-0.3-4.8-0.3c-0.7,0-2.1,0.1-4.2,0.3v-0.8
		c1.2,0,2-0.3,2.7-1c0.5-0.5,1-1.4,1.5-2.7l6.1-16c-0.3-0.9-1.3-1.4-3-1.5v-0.8c1.4,0.2,3.3,0.3,5.7,0.3c2.8,0,4.6-0.1,5.5-0.3v0.8
		c-1.8,0-2.9,0.6-3.2,1.8l6.8,17c0.4,0.9,0.8,1.5,1.4,1.9c0.5,0.3,1.3,0.5,2.3,0.6V611z M402,600.8l-4-10l-3.6,10H402z"/>
	<path class="st2" d="M363,543.5c-3-1.6-7.3-2.1-11.2-1.3c-3.9-0.8-8.2-0.3-11.2,1.3c-0.3,0.2-0.3,0.5,0.1,0.7
		c0.2,0.1,0.4,0.1,0.6,0c3-0.9,7.3-0.9,10.5,0c3.2-0.9,7.3-0.9,10.3,0c0.2,0.1,0.4,0.1,0.6,0C363.3,544.1,363.4,543.7,363,543.5"/>
	<path class="st2" d="M351.9,573.4c-0.3-1.7-0.5-3.5-0.5-5.4l0-23.6c-1.1-0.3-2.4-0.5-3.8-0.5l1.6,33.1c0.1,2.5,1,4.9,2.6,7.2V573.4
		z"/>
	<path class="st2" d="M352.4,568c0,1.9-0.2,3.7-0.5,5.4v10.8c1.6-2.3,2.5-4.7,2.6-7.2l1.6-33.1c-1.3,0.1-2.6,0.3-3.8,0.6L352.4,568z
		"/>
	<rect x="348.8" y="534.4" class="st2" width="6.1" height="8.7"/>
	<polygon class="st2" points="346.3,533.5 351.9,530.1 357.5,533.5 351.9,536.8 	"/>
	<path class="st2" d="M225.7,574.5c-0.3-1.5-1-2.6-2.1-3.4c0.1-0.4,0.3-0.7,0.4-1.1c0.5-1.7-0.4-3.4-1.8-3.7
		c-0.6-0.1-1.2,0.3-1.5,0.9c-0.2,0.6,0,1.4,0.5,1.8c0.3,0.2,0.6,0.5,0.9,0.1c0.3-0.4-0.1-0.6-0.4-0.8c0,0-0.1,0-0.1-0.1
		c-0.1-0.2-0.2-0.5-0.2-0.6c0.1-0.2,0.3-0.4,0.5-0.4c0.5,0,1.1,0.7,1.2,1.4c0.1,0.8-0.2,1.9-0.6,2.1c-0.6,0.2-1.2,0.4-1.7,0.2
		c-1.1-0.3-2-1.1-2.4-2.4c-0.6-2.1-0.3-4.2,0.7-6.1c0.3-0.6,0.8-0.9,1.4-0.9c0.5,0,1,0.4,1.1,1c0.1,0.6-0.1,1.2-0.6,1.4
		c-0.5,0.2-0.9,0-1.2-0.6c-0.1-0.2-0.4-0.2-0.5-0.3c0,0.3-0.1,0.6-0.1,0.8c0.2,0.7,1,1.2,1.7,1c0.7-0.1,1.3-0.8,1.4-1.6
		c0.2-1.8-1.1-3.1-2.5-2.6c-0.9,0.3-1.5,1.1-1.9,2.1c-0.2,0.5-0.3,1-0.5,1.5c-0.2-1.2-0.1-2.4-0.2-3.6c-0.1-1.6-0.1-3.3-0.3-4.9
		c-0.1-0.7-0.1-1.2,0.4-1.7c0.9-1.1,1.1-2.5,1.1-3.9c0-0.9-0.5-1.2-1.1-0.7c-0.6,0.4-0.9,1.1-1.1,1.8c-0.1,0.3-0.2,0.7-0.4,1.1
		c-1.1-1.4-2.4-2.2-3.9-2.6c-2-0.5-3.4,0.4-4.1,2.6c-0.1,0.2-0.1,0.3-0.1,0.4c-1.3-0.8-2.5-1.5-3.8-2.4c0-0.7,0.1-1.5,0.1-2.4
		c1.1-1.2,1.5-1.8,1.7-3c0.1-0.5,0.1-1,0.1-1.5c-0.1-0.7-0.6-0.9-1-0.4c-0.2,0.2-0.4,0.5-0.5,0.7c-0.3,0.5-0.5,1-0.8,1.7
		c-1.2-3-2.8-4.9-5.7-4.7c-0.2-0.7-0.4-1.4-0.7-2c-0.3-0.6-0.6-1.2-1-1.7c-0.5-0.7-1-0.5-1.1,0.3c-0.2,1.2-0.2,2.4,0.6,3.3
		c0.2,0.2,0.3,0.4,0.5,0.6c-0.4,0.4-0.8,0.8-1.2,1.2c-0.1,0.1-0.3,0.3-0.5,0.3c-2.1,0.3-4.2-1.4-4.8-3.9c-0.3-1.4,0.4-3.5,1.5-4.2
		c0.6-0.5,1.3-0.5,1.9,0c0.4,0.4,0.7,1.5,0.5,2.2c-0.1,0.4-0.3,0.7-0.7,0.8c-0.4,0-0.6-0.2-0.7-0.7c0-0.5-0.2-0.7-0.6-0.5
		c-0.3,0.2-0.3,0.5-0.2,0.9c0.2,0.7,0.7,1.1,1.3,1.2c0.6,0.1,1-0.2,1.4-0.7c0.5-0.9,0.4-2.4-0.2-3.3c-0.5-0.9-1.5-1.3-2.5-0.9
		c-1.2,0.4-1.8,1.6-2.3,2.8c-0.1,0.3-0.2,0.6-0.4,1c-0.3-1.3-0.8-2.3-1.5-3.1c-0.9-1-2.1-1.1-3-0.4c-0.8,0.6-1.2,2.2-0.9,3.4
		c0.2,0.7,0.6,1.1,1.2,1.3c0.8,0.2,1.7-0.6,1.7-1.4c0-0.2-0.2-0.4-0.3-0.6c-0.2,0.1-0.3,0.3-0.5,0.4c-0.1,0.1,0,0.2-0.1,0.3
		c-0.3,0.6-0.9,0.6-1.2,0c-0.3-0.6-0.2-1.7,0.2-2.2c0.4-0.6,1-0.8,1.6-0.5c0.4,0.2,0.7,0.4,1,0.8c1.5,2.1,1.4,4.2-0.6,6.4
		c-1,1-2.2,1.2-3.4,1.1c-0.6-0.5-1.1-1-1.7-1.5c0.2-0.2,0.3-0.3,0.5-0.5c0.8-0.9,0.9-2,0.7-3.2c-0.1-0.3-0.3-0.8-0.5-0.9
		c-0.4-0.2-0.6,0.2-0.8,0.5c-0.7,1.1-1.4,2.1-1.4,3.6c-3-0.3-4.7,1.7-5.8,4.7c-0.2-0.5-0.3-0.8-0.5-1.1c-0.2-0.4-0.4-0.9-0.7-1.3
		c-0.2-0.2-0.5-0.4-0.8-0.3c-0.1,0-0.2,0.5-0.3,0.7c0,0.1,0,0.2,0,0.4c0,1.7,0.7,3,1.9,4v2.6c-0.6,0.3-1.3,0.5-1.9,0.9
		c-0.6,0.4-1.2,0.9-1.9,1.4c-0.1-0.4-0.2-0.7-0.4-1.1c-0.6-1.5-1.6-2.3-3-2.1c-0.8,0.1-1.6,0.3-2.4,0.7c-0.9,0.5-1.6,1.2-2.4,1.8
		c-0.1-0.4-0.2-0.8-0.3-1.3c-0.2-0.7-0.6-1.3-1.1-1.6c-0.5-0.3-0.9-0.1-1,0.6c-0.1,1.5,0.2,2.9,1,4.1c0.2,0.3,0.4,0.5,0.6,0.8
		c-0.7,3.1-0.2,6.2-0.6,9.3c-0.2-0.4-0.3-0.8-0.5-1.2c-0.3-0.6-0.6-1.2-0.9-1.6c-0.9-1.1-2.3-1-3.1,0.1c-0.6,0.9-0.6,2.2,0.2,3
		c0.7,0.7,1.7,0.7,2.3-0.1c0.4-0.5,0.5-1,0.2-1.2c-0.5-0.3-0.5,0.2-0.7,0.5c-0.3,0.4-0.6,0.5-1.1,0.3c-0.4-0.2-0.6-0.7-0.5-1.3
		c0.1-0.6,0.5-1,1-1.1c0.7-0.1,1.2,0.3,1.5,0.9c0.8,1.5,1.1,3.2,0.9,5c-0.1,0.6-0.3,1.1-0.5,1.6c-0.4,0.9-1.1,1.3-1.8,1.7
		c-0.7,0.4-1.3-0.3-2-0.1c-0.1,0-0.2-0.1-0.2-0.2c-0.7-0.8-0.6-2.4,0.2-3c0.3-0.2,0.7-0.6,1.1-0.1c0.3,0.5-0.1,0.7-0.3,1
		c-0.1,0.1-0.1,0.5-0.2,0.7c0.2,0,0.4,0.1,0.5,0.1c0.7-0.3,1-1.1,0.8-1.9c-0.2-0.7-0.8-1.1-1.5-1c-1.3,0.4-2.1,1.9-1.7,3.5
		c0.1,0.4,0.3,0.8,0.4,1.2c-1.4,0.9-2,2.3-2.3,4.1c0,0.4,0,0.8,0,1.2c0.1,0.5,0.4,0.7,0.8,0.4c0.3-0.1,0.5-0.4,0.7-0.5
		c0,0.1,0,0.1,0,0.2c-0.1,0.3-0.1,0.6-0.2,0.9c-0.6,2.4,0,4.2,1.8,5.5c0.1,0.1,0.2,0.2,0.3,0.3c2.5,1.9,5.1,3.2,8,4.2
		c0.4,0.1,0.8,0.1,1.2,0.2c0.1,0,0.3-0.2,0.3-0.3c0-0.1-0.1-0.4-0.2-0.5c-0.2-0.1-0.5-0.2-0.7-0.3c-2.1-1-4.2-1.9-6.3-3
		c-1.2-0.6-2.2-1.4-3.1-2.5c-0.7-0.9-0.9-1.6-0.3-2.7c0.5-1,1.2-2,1.9-2.9c2.5-2.9,5.5-4.8,8.7-6.2c5.6-2.3,11.5-3.3,17.4-3.7
		c1.3-0.1,2.6-0.3,4-0.3c1.3,0,2.5-0.4,3.8-0.2c2.3,0.4,4.6,0.5,6.9,0.6c4.6,0.4,9.2,1.3,13.7,2.8c4,1.3,7.7,3.4,10.7,6.8
		c0.8,0.9,1.4,1.9,2,2.9c0.6,1,0.4,2-0.3,2.8c-0.7,0.7-1.4,1.4-2.2,2c-2.3,1.6-4.7,2.7-7.2,3.6c-0.3,0.1-0.6,0.3-0.9,0.5
		c0,0.1,0,0.3,0,0.4c0.2,0.1,0.5,0.2,0.7,0.2c0.4,0,0.8-0.1,1.2-0.3c2.4-0.8,4.7-2,6.8-3.5c0.7-0.5,1.4-1.1,2-1.7
		c0.9-0.9,1.4-2.1,1.1-3.6c-0.2-0.7-0.2-1.4-0.3-2.2c0.3,0.2,0.5,0.4,0.7,0.6c0.5,0.3,0.9,0.1,0.9-0.6
		C225.8,575.6,225.8,575,225.7,574.5 M205,544.6c0.1,0.1,0.2,0.1,0.2,0.2c-0.2,0.6-0.4,1.2-0.6,1.7
		C204.4,545.7,204.8,545.1,205,544.6 M172.5,544.7c0.1,0,0.1-0.1,0.2-0.1c0.2,0.6,0.4,1.1,0.7,1.7
		C172.8,545.9,172.6,545.3,172.5,544.7 M152.7,575.7c0.2-2.5,1.4-4.1,2.8-3.7C154.8,573.6,153.8,574.7,152.7,575.7 M217.7,550.6
		c0.2,1.1-0.1,2-0.8,3C216.8,552.3,217,551.4,217.7,550.6 M196,538.2c0.5,0.7,0.9,1.4,1,2.3C196,540,195.8,539.5,196,538.2
		 M197.8,541.9c1.9-0.3,3.3,0.5,4.4,2.4c0.7,1.2,1.1,2.6,1.2,4.2c-0.3-0.2-0.5-0.4-0.7-0.6c-0.4-0.2-0.8-0.5-1.2-0.6
		c-0.3-0.1-0.7,0.1-0.9,0.3c-0.3,0.3-0.1,0.8,0.1,1c0.4,0.5,0.8,0.9,1.3,1.3c0.1,0.1,0.3,0.3,0.5,0.4c-1,0.2-1.9,0.3-2.8,0.7
		c-0.9,0.3-1.6,1-2.1,2.1c-0.6-1.2-1.1-2.3-1.6-3.5c0.3,0,0.5-0.1,0.8-0.1c1.5-0.1,2.8-2,2.5-3.7c-0.2-1.2-1.1-1.9-2-1.5
		c-0.5,0.2-0.6,0.4-0.4,1.2c0.2-0.1,0.4-0.2,0.6-0.3c0.5-0.2,0.9,0.1,1,0.8c0.1,1.2-0.7,2.5-1.7,2.6c-1.1,0.1-2.2-0.9-2.2-2.2
		C194.6,544,195.7,542.2,197.8,541.9 M202.4,548.9c0,0.1-0.1,0.1-0.1,0.1c-0.2-0.2-0.4-0.3-0.6-0.5c0-0.1,0.1-0.1,0.1-0.2
		C202.1,548.6,202.2,548.7,202.4,548.9 M194.1,543.8c-0.1,1.2-0.3,2.4-0.4,3.6c-1.5-1.6-3.2-3.1-3.7-5.7
		C191.1,543.1,192.5,543.7,194.1,543.8 M188.8,541.9c1.2,2.1,1.3,5.8,0,7.9C187.5,547.1,188.1,544.5,188.8,541.9 M187.8,541.7
		c-0.6,2.5-2.1,4.1-3.7,5.7c-0.2-1.2-0.3-2.3-0.4-3.6C185.2,543.7,186.6,543.1,187.8,541.7 M181.8,538.3c0.2,1-0.2,1.8-1,2.3
		C180.8,539.5,181.3,538.9,181.8,538.3 M174.5,547c0.4-1.7,1-3.2,2.2-4.2c1.2-1.1,2.6-1.2,4-0.7c1.9,0.7,2.5,2.8,2.4,4.6
		c-0.1,1.2-1.2,2.1-2.2,1.9c-1-0.2-1.8-1.7-1.6-2.7c0.1-0.5,0.5-0.8,0.9-0.6c0.2,0.1,0.3,0.2,0.4,0.3c0.3,0.1,0.5-0.3,0.4-0.6
		c-0.1-0.2-0.3-0.5-0.6-0.6c-0.9-0.4-1.9,0.4-2,1.7c-0.1,1.9,1.3,3.8,2.7,3.5c0.2,0,0.4,0,0.6,0c-0.6,1.2-1.1,2.3-1.6,3.4
		c-0.5-0.9-1.2-1.7-2.2-2c-0.9-0.3-1.8-0.4-2.7-0.6c0.4-0.4,0.9-0.8,1.4-1.3c0.3-0.4,0.7-0.8,0.5-1.4c-0.2-0.5-0.6-0.5-1.3-0.2
		c-0.2,0.1-0.5,0.3-0.7,0.4s-0.4,0.4-0.8,0.7C174.4,547.9,174.4,547.4,174.5,547 M160,550.4c0.7,1,0.8,2,0.8,3
		C160.2,552.7,159.9,551.7,160,550.4 M166,565.7c-0.6,0.1-1.2,0.5-1.8,0.9c-1.1,0.8-2.3,1.3-3.7,2c0.7-3.6,0.6-7.1,0.6-10.6
		c0-1.5,0.3-2.9,0.8-4.2c0.2-0.5,0.6-1.1,1-1.5c1-1,2.1-1.6,3.4-1.7c0.9-0.1,1.7,0.2,2.1,1.1c0.5,0.9,0.9,1.9,0.3,3.1
		c-0.1,0.2-0.2,0.3-0.2,0.5c-0.2,0.7-0.5,1.2-1.2,1.2c-0.7,0-1.5-0.7-1.7-1.4c-0.2-0.9-0.1-1.8,0.6-2.4c0.2-0.2,0.5-0.4,0.3-0.7
		c-0.2-0.4-0.5-0.2-0.8,0c-0.8,0.6-1.2,2.3-0.8,3.5c0.1,0.3,0.3,0.6,0.4,1c-0.3,0.1-0.6,0.2-0.9,0.4c-1.7,0.7-2.6,2.3-2.4,4.2
		c0.1,1.5,0.8,2.4,2,2.6c1.2,0.3,2.7-0.5,3.1-1.7c0.3-0.9,0.1-1.8-0.7-2.2c-0.8-0.4-1.7,0-2,0.9c-0.1,0.2,0.1,0.4,0.1,0.6
		c0.2,0,0.4,0,0.5-0.1c0.1-0.1,0.2-0.3,0.3-0.4c0.3-0.3,0.6-0.2,0.9,0.1c0.3,0.3,0.2,0.6,0.1,0.9c-0.4,0.8-1.5,1.3-2.4,1
		c-0.8-0.2-1.3-1.1-1.2-2.1c0-0.6,0.2-1.3,0.5-1.7c0.8-1.3,3-2.1,4.5-0.8c1.5,1.4,1.9,3.7,0.7,5.4C168,564.6,167.2,565.4,166,565.7
		 M169.2,564.6c0.4-1,0.7-2,1.1-3c1.5,0.5,3.1,1.1,4.7,1.6C173,563.6,171.1,564.1,169.2,564.6 M171.5,556.6c0.5,1.4,0.4,2.1-0.1,3
		C171,558.6,171.2,557.7,171.5,556.6 M172.1,560.9c0.4-1.2,0.6-2.3,0.5-3.5c0-0.5-0.1-0.9-0.3-1.3c-0.4-0.8-1.1-0.8-1.4,0.1
		c-0.3,0.9-0.6,1.8-0.4,2.9c0,0.2,0,0.4,0.1,0.6c-1-0.7-1.4-2.1-1.1-3.3c0.3-1.4,0.9-2.5,2-3.3c1.9-1.5,4-2.1,6.3-1.3
		c0.5,0.2,1,0.5,1.4,0.9c1.4,1.5,1.2,3.9-0.4,5.1c-0.9,0.6-1.9,0.8-2.9,0.3c-0.9-0.5-1.3-1.5-1-2.5c0.3-0.8,0.6-1,1.3-0.5
		c0.1,0.1,0.2,0.1,0.4,0.2c0.2-0.7,0-1.1-0.4-1.5c-0.4-0.4-0.9-0.3-1.3,0c-0.8,0.7-1.1,1.6-1,2.8c0.1,1.2,0.7,2,1.6,2.4
		c0.8,0.4,1.7,0.3,2.7,0.1c-0.2,1.7,0.5,2.7,1.8,3.5C177.1,562.3,174.6,562,172.1,560.9 M178.9,560.3c-0.2-0.6-0.1-1,0.2-1.4
		c0.4-0.3,0.6-0.3,1.2,0.3c-0.1,0.2-0.3,0.4-0.4,0.6c-0.1,0.1-0.1,0.4,0,0.5c0.1,0.1,0.3,0.2,0.4,0.1c0.8-0.3,1-1.2,0.5-2
		c-0.2-0.2-0.4-0.4-0.5-0.7c0.8,0.1,1.4,0.8,1.5,1.8c0.1,0.9-0.4,1.6-1.1,1.8C180,561.6,179.2,561.1,178.9,560.3 M181.3,562.5
		c0-0.1,0-0.1-0.1-0.2c0.3-0.4,0.8-0.8,1-1.3c0.2-0.5,0.3-1.2,0.4-1.9c1.1,0.6,2.2,1.3,3.4,2c0,0.1,0,0.2,0,0.2
		C184.5,561.8,182.9,562.2,181.3,562.5 M185.7,559.7c-1-0.6-2-1.1-2.9-1.8c-1.8-1.4-2.2-3.4-1.3-5.7c0.5-1.3,1.4-2.2,2.2-3.2
		c1-1.2,2.1-2.3,3.2-3.4c0.1-0.1,0.2-0.1,0.3-0.2c0.1,1.1,0.1,2.1,0.2,3.3c-0.8,0.4-1.6,1-2.3,1.9c-2.2,2.5-1.6,5.9,0.3,7.9
		c0.7,0.7,1.3,1.3,1.9,2.1C186.8,560.3,186.2,560,185.7,559.7 M189.1,561.8c-0.3-0.3-0.5-0.4-0.5-0.6c0-0.9-0.5-1.4-1-1.9
		c-0.5-0.5-1-1-1.5-1.5c-1.9-1.9-2-4.6-0.2-6.7c0.5-0.5,1-0.9,1.5-1.4c1,0.8,1.3,2.6,0.8,3.6c-0.2,0.3-0.5,0.6-0.7,0.7
		c-0.1,0.1-0.5-0.1-0.6-0.3c-0.1-0.2,0-0.5,0.1-0.7c0-0.1,0.2-0.2,0.3-0.2c0.3-0.1,0.5-0.4,0.3-0.7c-0.1-0.1-0.4-0.2-0.6-0.1
		c-0.6,0.2-0.9,0.6-1,1.3c-0.1,0.6,0.1,1.2,0.6,1.5c0.5,0.4,1,0.3,1.5-0.1c0.3-0.2,0.5-0.6,0.8-0.9c0.3,0.3,0.5,0.6,0.8,0.9
		c0.5,0.4,1.1,0.5,1.6,0.1c0.5-0.4,0.5-1,0.5-1.7c0-0.7-0.5-1-1-1.1c-0.1,0-0.3,0-0.4,0.1c-0.1,0-0.1,0-0.2,0.1c0,0.1,0,0.1,0.1,0.2
		c0.1,0.2,0.1,0.3,0.2,0.5c0.1,0.1,0.3,0.1,0.3,0.2c0.1,0.2,0.2,0.6,0.2,0.7c-0.1,0.2-0.4,0.4-0.6,0.3c-0.5-0.1-0.8-0.7-0.9-1.3
		c-0.2-1.1,0-2.2,0.8-3.1c1.3,0.8,2.4,1.8,2.9,3.5c0.5,1.8-0.2,3.3-1.3,4.5c-0.5,0.5-1,1-1.5,1.4
		C189.7,559.8,189.1,560.5,189.1,561.8 M190.6,560.3c0.2-0.2,0.3-0.5,0.5-0.7c0.5-0.5,1-0.9,1.4-1.3c1.9-2.1,2.2-5.4,0.1-7.7
		c-0.7-0.8-1.4-1.5-2.4-1.8c0.1-1.2,0.2-2.2,0.3-3.2c0.1,0,0.2,0,0.2,0.1c1.3,1.3,2.5,2.7,3.8,4c1,1.1,1.8,2.3,2,3.9
		c0.2,1.3,0,2.3-0.7,3.3c-0.3,0.4-0.7,0.9-1.1,1.1c-1.3,0.9-2.7,1.7-4,2.5C190.7,560.4,190.6,560.3,190.6,560.3 M191.6,561.2
		c1.2-0.7,2.3-1.3,3.4-2c0.3,1.9,0.4,2,1.5,3C195.6,562.5,193.3,562,191.6,561.2 M196.1,560.5c-0.3-0.7-0.1-1.4,0.3-1.9
		c0.4-0.6,0.9-0.9,1.7-1c-0.4,0.3-0.8,0.6-1,0.9c-0.6,0.7-0.4,1.6,0.4,2c0.1,0.1,0.4,0.1,0.4,0c0.1-0.2,0.1-0.4,0.1-0.6
		c-0.1-0.2-0.3-0.3-0.4-0.5c0.3-0.6,0.6-0.7,1.1-0.5c0.4,0.3,0.6,0.8,0.4,1.4c-0.2,0.7-0.8,1.2-1.5,1.2
		C196.8,561.5,196.3,561.1,196.1,560.5 M199.7,559.1c0.7,0,1.3,0.1,1.8,0.1c1-0.1,1.8-0.6,2.2-1.7c0.4-1,0.3-2.1-0.2-3
		c-0.2-0.3-0.5-0.7-0.8-0.8c-0.9-0.5-1.6,0.3-1.4,1.5c0.1-0.1,0.3-0.1,0.4-0.1c0.7-0.4,1.2-0.2,1.4,0.7c0.2,0.9-0.2,1.9-1,2.3
		c-1.8,0.9-4.1-0.6-4.3-2.6c-0.1-1.4,0.5-2.8,1.8-3.5c1.1-0.6,2.3-0.6,3.4-0.4c1.3,0.2,2.5,0.8,3.6,1.8c1,0.8,1.5,2,1.7,3.3
		c0.2,1.2-0.2,2.2-1.1,3.2c0-0.5,0-0.8,0-1.1c-0.1-0.8-0.2-1.6-0.4-2.4c-0.1-0.3-0.4-0.7-0.7-0.7c-0.3,0-0.6,0.3-0.8,0.6
		c-0.4,0.8-0.4,1.8-0.3,2.7c0.1,0.6,0.3,1.3,0.5,2c-2.4,1.1-5,1.4-7.8,1.6C199.2,561.8,199.9,560.7,199.7,559.1 M206.3,559.8
		c-0.5-1.2-0.5-2.1-0.2-3.3C206.6,557.6,206.6,558.6,206.3,559.8 M202.7,563.1c1.6-0.6,3.2-1.1,4.7-1.6c0.3,1,0.7,2,1,3
		C206.6,564.1,204.7,563.6,202.7,563.1 M216.2,568.1c-1.5-0.7-2.8-1.9-4.4-2.4c-1.1-0.3-1.9-1-2.6-2c-0.9-1.2-1-2.7-0.4-4.1
		c0.8-1.6,1.9-2.3,3.3-2.1c1.5,0.3,2.4,1.3,2.7,2.7c0.2,1-0.3,2.1-1,2.5c-0.9,0.4-2.2,0-2.6-0.8c-0.2-0.4-0.3-0.7,0.1-1
		c0.3-0.3,0.6-0.3,0.9,0c0,0.1,0.1,0.1,0.1,0.2c0.2,0.2,0.3,0.6,0.6,0.3c0.4-0.3,0.1-0.7-0.1-1c-0.4-0.7-1.3-0.8-2-0.4
		c-0.6,0.5-0.8,1.3-0.5,2.2c0.5,1.3,2.2,2,3.5,1.5c1.1-0.4,1.8-1.6,1.7-3.4c-0.1-1.8-1.1-2.8-2.4-3.4c-0.3-0.1-0.6-0.2-1-0.4
		c0.7-1.2,0.8-2.4,0.3-3.6c-0.2-0.4-0.5-0.7-0.8-1c-0.1-0.1-0.4,0.1-0.6,0.1c0.1,0.2,0.1,0.5,0.2,0.7c0.1,0.1,0.2,0.2,0.3,0.3
		c0.5,0.6,0.6,1.6,0.4,2.3c-0.3,0.8-1.1,1.4-1.7,1.3c-0.2,0-0.5-0.2-0.7-0.4c-0.8-0.8-1-2.8-0.5-3.9c0.6-1.4,1.4-1.9,2.8-1.6
		c0.9,0.3,1.8,0.7,2.6,1.2c1.3,0.9,1.8,2.5,2.1,4.1c0.2,0.9,0.2,1.9,0.2,2.8c0.1,2.4,0.1,4.8,0.2,7.2c0,0.8,0.2,1.6,0.3,2.6
		C216.8,568.4,216.5,568.3,216.2,568.1 M222.2,571.9c0.3,0,0.6-0.1,0.8,0c1.2,0.4,1.9,1.8,2,3.7
		C223.8,574.6,222.9,573.5,222.2,571.9"/>
</g>
<g>
	<path class="st3" d="M429.8,198.6c0,84.2-67.9,152.5-151.7,152.5c-83.8,0-151.7-68.3-151.7-152.5S194.4,46.1,278.1,46.1
		C361.9,46.1,429.8,114.3,429.8,198.6"/>
	<g>
		<defs>
			<path id="SVGID_00000020373260008658302080000006304680949348382366_" d="M126.5,199.1c0,84.2,67.9,152.5,151.7,152.5
				c83.8,0,151.7-68.3,151.7-152.5S361.9,46.6,278.1,46.6C194.4,46.6,126.5,114.8,126.5,199.1"/>
		</defs>
		<clipPath id="SVGID_00000017506685504794416010000012467959655002778260_">
			<use xlink:href="#SVGID_00000020373260008658302080000006304680949348382366_"  style="overflow:visible;"/>
		</clipPath>
		
			<path style="clip-path:url(#SVGID_00000017506685504794416010000012467959655002778260_);fill:#FFFFFF;stroke:#FFFFFF;stroke-miterlimit:10;" d="
			M131.5,311.9l5.4-2.2v-5.4l-0.9-0.7v-0.7h2.9l1-1h1.7v0.7h3v1.2l-0.6,0.6v5.1l8,1.8v0.8h-1.1v7.9h4.9v-1.6h5.1v1.6h2.7v-1.8l-2-1
			l10.2-2.9l7.7,3.2h1.5c0,0-0.5-2.6,3.3-2.1c3.8,0.5,3.7,2.3,3.7,2.3s7.6-0.1,7.9,0.6c0.3,0.7,0.1,2.2,1,2.2h3.3v-21.4
			c0,0-2.1-3.1-2.3-6.2c-0.2-3.1-0.1-4.9-0.1-4.9h-3l-1.4-1.7l19.1-7.5l0.3-9.5l3.5-1.3v-3.3h0.9c0,0-0.2-1.9,0.8-1.9
			c1,0,1,1.6,1,1.6h1.4v3.6l4.4,1.3v8.4l19.3,6.9v0.9l-3.6,1.4v5.3l-2.3,6v8.9h5.1l1.4-0.9v-2.4h1.4v0.8l3.2-1.8l6.3,3.9
			c0,0,6.4-4.6,7.4-4.9c0.8-0.2,11.9-0.7,11.9-0.7l0.7,1.1h7.3v-2.4h4.9l0.5,2h6.7l1.3,1.4v-12l6.6-3.3l7.2,3.9v10.7l0.1,1.1
			c0.6,0.2,5.3,0.2,5.3,0.2l3.5,0l4,3.3l6.1,3.1v-4.7c0,0-1.5,0.5-1.6-0.8c-0.1-1.5,1.6-1.4,1.6-1.4s-0.2-4,0-5.4
			c0.1-0.8,1.5-2.4,1.7-3.4c0.3-1.1,0.7-3.5,0.7-3.5s0.5-0.1,0.9-0.1c0.4,0,0.3,2.3,0.6,3.7c0.4,2.3,1.9,2.6,2.1,4.3
			c0.2,1.7,0.2,4.4,0.2,4.4s1-0.2,1.2,0.8c0.3,1.7-1.2,1.5-1.2,1.5l0.2,4.6l14.5,0V298l4.9-2.8h11.2v4h15v3.6l-1.1,1.1v1.7h19.4
			v-10.2l6.9-2.5v-6.5h-2.4v-1.2l8-3.4h6.8l5.5,3.4v1.9h-1.3v7.9l1.8,0.3c1.8,0.3,0.9,2.1,0.9,2.1h9.8l0.3,4.2h5.9l-0.3,7.2l0.9-0.2
			l4.5-20.2h5l1.5,23.3l2.8,1.1c0,0,5.7-41.4,6.5-45.1c0.3-1.3,3.2-0.7,5-0.7c1.9,0,2,4.2,2,7.2c0,2.7,8.1,37.1,9.4,42.5v2.9v10.9
			H131.5V311.9z"/>
		
			<rect x="188.1" y="327.3" style="clip-path:url(#SVGID_00000017506685504794416010000012467959655002778260_);fill:#FFFFFF;stroke:#FFFFFF;stroke-miterlimit:10;" width="188.9" height="37.8"/>
		
			<use xlink:href="#SVGID_00000020373260008658302080000006304680949348382366_"  style="overflow:visible;fill:none;stroke:#FFFFFF;stroke-miterlimit:10;"/>
	</g>
</g>
<circle class="st5" cx="278.1" cy="198.3" r="151.6"/>
<g>
	<path class="st2" d="M264.4,164.7c0,3.9-1.7,7-5,9.1c-2.8,1.9-6.3,2.8-10.4,2.8h-5.5v9.4c0,2.7,0.4,4.4,1.1,5.3
		c0.9,1.1,2.6,1.6,5.2,1.6l-0.3,1.5c-0.9,0-2.3-0.1-4.1-0.3c-1.9-0.2-3.3-0.3-4.3-0.3c-1.1,0-2.7,0.1-4.9,0.3
		c-2.2,0.2-3.9,0.3-5.1,0.3V193c2,0,3.5-0.2,4.3-0.7c1.1-0.7,1.6-2,1.6-4v-29.3c0-1.8-0.6-2.9-1.7-3.5c-0.6-0.3-2.1-0.5-4.2-0.7
		v-1.2c0.9,0,2.1,0,3.7,0.1c1.6,0.1,2.8,0.1,3.5,0.1c1,0,2.5,0,4.5-0.1c2-0.1,3.5-0.1,4.4-0.1c4.6,0,8.3,0.7,11.3,2.1
		C262.4,157.6,264.4,160.6,264.4,164.7 M257.5,165.3c0-3.3-1.1-5.8-3.4-7.6c-2-1.6-4.8-2.4-8.2-2.4h-2.3v19.6h4.5
		c2.9,0,5.2-0.9,6.9-2.6C256.6,170.6,257.5,168.3,257.5,165.3"/>
	<path class="st2" d="M299.6,194.5c-3.6-0.3-6.5-0.5-8.6-0.5c-1.8,0-4.7,0.2-8.6,0.5V193c3-0.2,4.5-1,4.5-2.5c0-0.7-0.3-1.6-0.8-2.7
		l-3.2-9.1h-15.5l-2.8,7.1c-0.6,1.6-0.9,2.9-0.9,3.8c0,2.2,2,3.3,6.1,3.3v1.5c-4.6-0.3-7.5-0.5-8.6-0.5c-1.3,0-3.8,0.2-7.4,0.5V193
		c2.1,0,3.7-0.6,4.8-1.8c0.8-0.9,1.7-2.5,2.6-4.8l10.8-28.6c-0.5-1.6-2.4-2.5-5.4-2.7v-1.5c2.5,0.3,5.8,0.5,10.1,0.5
		c5,0,8.2-0.2,9.9-0.5v1.5c-3.2,0-5.1,1.1-5.7,3.2l12.1,30.3c0.6,1.6,1.5,2.7,2.6,3.4c0.9,0.6,2.3,0.9,4.1,1.1V194.5z M281.6,176.3
		l-7.2-17.8l-6.4,17.8H281.6z"/>
	<path class="st2" d="M338.6,185.4l-2.5,9.1l-21.4-0.5c-1,0-5.4,0.2-13.3,0.5l-0.3-1.7c2.7,0,4.4-0.4,5.2-1.2
		c0.8-0.8,1.2-2.4,1.2-4.9V159c0-1.7-0.6-2.9-1.7-3.5c-0.6-0.3-2-0.5-4.1-0.7v-1.2c1.1,0,2.9,0.1,5.3,0.3c2.4,0.2,4.2,0.3,5.3,0.3
		c0.8,0,2.1-0.1,3.8-0.3c1.7-0.2,3-0.3,3.8-0.3v1.2c-2.4,0.1-4,0.6-4.8,1.4c-0.8,0.8-1.1,2.5-1.1,5v24.7c0,2.6,0.8,4.3,2.3,5.2
		c1.2,0.6,3.2,1,6,1c4.3,0,7.3-0.3,8.9-0.8c2.8-1,4.7-3.1,5.7-6.3L338.6,185.4z"/>
	<path class="st2" d="M408.6,172.9c0.3,6.5-2,11.9-6.9,16.3c-4.6,4.1-10.1,6.1-16.5,6.1c-6.4,0.1-12-1.7-16.8-5.6
		c-5.1-4.1-7.6-9.4-7.6-15.8c0-6.2,2.4-11.3,7.3-15.3c4.5-3.7,9.9-5.7,16.1-5.8c6.2-0.1,11.6,1.6,16.4,5.2
		C405.6,161.9,408.3,166.9,408.6,172.9 M398.7,163.5c-1.4-2.5-3.6-4.5-6.6-6c-2.8-1.4-5.7-2.2-8.8-2.2c-4.6,0-8.3,1.7-11.3,5.2
		c-2.8,3.3-4.2,7.3-4.2,11.9c0,5.5,1.7,10.2,5.2,14.3c3.6,4.3,8.1,6.4,13.5,6.4c5,0,8.9-1.8,11.8-5.3c2.6-3.2,3.9-7.2,3.9-12
		C402.2,171.4,401,167.2,398.7,163.5 M387.9,174.4l-2.7,2.8l-0.5,0l-2.8-2.8c0-0.1-0.1-0.2-0.1-0.3c0,0,0.1-0.1,0.1-0.2l2.8-2.8
		c0.1-0.1,0.2-0.2,0.3-0.2c0,0,0.1,0.1,0.3,0.2l2.7,2.8c0.1,0.1,0.2,0.2,0.2,0.2C388.1,174.2,388,174.3,387.9,174.4"/>
	<path class="st2" d="M168.3,211.8c0,3.3-1.4,5.7-4.2,7.4c-2.3,1.3-5.2,2-8.7,2c-0.4,0-1,0-1.7-0.1c-0.8,0-1.3-0.1-1.7-0.1
		c-0.5,0-1.2,0-2.1,0.1c-0.9,0-1.6,0.1-2.1,0.1v-0.7c1,0,1.7-0.1,2-0.3c0.4-0.2,0.7-0.8,0.7-1.8v-13.1c0-0.8-0.3-1.3-0.8-1.6
		c-0.3-0.1-0.9-0.2-1.9-0.3v-0.7c0.6,0.1,2.1,0.1,4.8,0.1c0.4,0,0.9,0,1.4-0.1c0.5,0,0.8-0.1,1-0.1c3.6,0,6.5,0.6,8.9,1.8
		C166.7,206.1,168.3,208.5,168.3,211.8 M165.1,212.1c0-2.9-1.1-5-3.2-6.5c-1.8-1.3-4.3-2-7.2-2h-1.4v13.2c0,1.3,0.2,2.2,0.5,2.6
		c0.4,0.5,1.2,0.8,2.4,0.8c2.6,0,4.7-0.7,6.3-2C164.2,216.7,165.1,214.7,165.1,212.1"/>
	<path class="st2" d="M185.2,217.1c-0.8,1.2-1.2,2.5-1.3,4c-0.9,0-2.1,0-3.6-0.1c-1.5,0-2.4-0.1-3-0.1l-3.4-0.1
		c-1.6,0-3.4,0-5.5,0.1v-0.7c1,0,1.6-0.1,2-0.3c0.5-0.3,0.7-0.9,0.7-1.8v-12.8c0-0.9-0.3-1.5-0.8-1.8c-0.4-0.2-1-0.3-1.9-0.3v-0.7
		c2.1,0.1,4,0.2,5.5,0.1h3.4c0.5,0,1.5,0,3-0.1c1.5,0,2.6-0.1,3.6-0.1c0.1,1.5,0.6,2.8,1.3,3.9l-0.8,0.2c-0.6-1.3-1.4-2.2-2.5-2.7
		c-0.8-0.3-2.1-0.5-3.7-0.5c-1.6,0-2.6,0.1-3,0.2c-0.9,0.3-1.3,1.1-1.3,2.4v4.7h3.8l0.8-0.8c0-0.1,0.1-0.1,0.1-0.1
		c0,0,0.1,0,0.1,0.1l1.2,1.2c0.1,0.1,0.1,0.1,0.1,0.1c0,0,0,0.1-0.1,0.1l-1.2,1.2l-0.2,0l-0.8-0.8h-3.8v5.5c0,1.3,0.4,2,1.3,2.3
		c0.4,0.1,1.4,0.2,3,0.2c1.7,0,2.9-0.2,3.7-0.5c1.1-0.5,1.9-1.4,2.5-2.7L185.2,217.1z"/>
	<path class="st2" d="M201.9,217l-1.1,4.1l-9.6-0.2c-0.4,0-2.4,0.1-6,0.2l-0.1-0.8c1.2,0,2-0.2,2.3-0.5c0.4-0.4,0.5-1.1,0.5-2.2
		v-12.4c0-0.8-0.3-1.3-0.8-1.6c-0.3-0.1-0.9-0.2-1.9-0.3v-0.6c0.5,0,1.3,0,2.4,0.1c1.1,0.1,1.9,0.1,2.4,0.1c0.4,0,0.9,0,1.7-0.1
		c0.8-0.1,1.3-0.1,1.7-0.1v0.6c-1.1,0.1-1.8,0.3-2.1,0.6c-0.3,0.4-0.5,1.1-0.5,2.2v11.1c0,1.2,0.3,1.9,1,2.3
		c0.5,0.3,1.4,0.4,2.7,0.4c1.9,0,3.3-0.1,4-0.4c1.3-0.4,2.1-1.4,2.6-2.8L201.9,217z"/>
	<path class="st2" d="M218.5,217l-1.1,4.1l-9.6-0.2c-0.4,0-2.4,0.1-6,0.2l-0.1-0.8c1.2,0,2-0.2,2.3-0.5c0.4-0.4,0.5-1.1,0.5-2.2
		v-12.4c0-0.8-0.3-1.3-0.8-1.6c-0.3-0.1-0.9-0.2-1.9-0.3v-0.6c0.5,0,1.3,0,2.4,0.1c1.1,0.1,1.9,0.1,2.4,0.1c0.4,0,0.9,0,1.7-0.1
		c0.8-0.1,1.3-0.1,1.7-0.1v0.6c-1.1,0.1-1.8,0.3-2.1,0.6c-0.3,0.4-0.5,1.1-0.5,2.2v11.1c0,1.2,0.3,1.9,1,2.3
		c0.5,0.3,1.4,0.4,2.7,0.4c1.9,0,3.3-0.1,4-0.4c1.3-0.4,2.1-1.4,2.6-2.8L218.5,217z"/>
	<path class="st2" d="M222.9,204.5c-0.6,2-1.6,4.6-2.3,5.8l-1.4,0.2c0.5-1.4,1.2-4,1.4-5.7L222.9,204.5z"/>
	<path class="st2" d="M249.7,221.1c-2-0.2-3.6-0.3-4.8-0.3c-1,0-2.6,0.1-4.8,0.3v-0.8c1.7-0.1,2.5-0.6,2.5-1.4
		c0-0.4-0.2-0.9-0.5-1.5l-1.8-5.1h-8.7l-1.5,4c-0.3,0.9-0.5,1.6-0.5,2.1c0,1.2,1.1,1.9,3.4,1.9v0.8c-2.6-0.2-4.2-0.3-4.8-0.3
		c-0.7,0-2.1,0.1-4.2,0.3v-0.8c1.2,0,2-0.3,2.7-1c0.5-0.5,1-1.4,1.5-2.7l6.1-16c-0.3-0.9-1.3-1.4-3-1.5v-0.8
		c1.4,0.2,3.3,0.3,5.7,0.3c2.8,0,4.6-0.1,5.5-0.3v0.8c-1.8,0-2.9,0.6-3.2,1.8l6.8,17c0.4,0.9,0.8,1.5,1.4,1.9
		c0.5,0.3,1.3,0.5,2.3,0.6V221.1z M239.7,210.9l-4-10l-3.6,10H239.7z"/>
	<path class="st2" d="M278.6,221.1c-0.6,0-1.5,0-2.8-0.1s-2.2-0.1-2.9-0.1c-0.6,0-1.6,0-3,0.1c-1.3,0.1-2.3,0.1-3,0.1v-0.8
		c1.7,0,2.8-0.3,3.2-0.9c0.4-0.5,0.6-1.6,0.6-3.4v-15.8l-13.1,4.6V216c0,1.7,0.3,2.9,0.8,3.4c0.5,0.6,1.6,0.8,3.2,0.8v0.8
		c-0.6,0-1.6,0-2.9-0.1c-1.3-0.1-2.3-0.1-3-0.1c-0.6,0-1.5,0-2.8,0.1s-2.2,0.1-2.9,0.1v-0.8c2.8,0,4.2-1.8,4.2-5.4v-12.4
		c0-1.3-0.2-2.2-0.5-2.6c-0.4-0.5-1.2-0.8-2.4-0.8v-0.8l6.4,0.1v4.6l13-4.7c0.2,0,0.6,0,1.1,0.1c0.5,0.1,0.9,0.1,1.1,0.1
		c0.3,0.1,1.9,0,4.6-0.1v0.8c-1.3,0-2.1,0.2-2.5,0.7c-0.4,0.5-0.6,1.4-0.6,2.7v12.4c0,3.6,1.4,5.4,4.2,5.4V221.1z"/>
	<path class="st2" d="M307.2,212.1c-1.4,0-2.3,0.2-2.7,0.7c-0.4,0.5-0.7,1.4-0.7,2.8v2.9l0.7,0.5v0.7c-3.6,1.2-7.1,1.8-10.3,1.8
		c-4,0-7.2-1-9.8-2.9c-2.8-2.1-4.3-5.1-4.3-9c0-3.7,1.5-6.6,4.6-8.9c2.8-2,6-3.1,9.8-3.1c2.6,0,5.7,0.6,9.5,1.7l0.5,4.6h-0.8
		c-0.4-1.9-1.5-3.2-3.3-4.2c-1.5-0.8-3.3-1.1-5.4-1.1c-3.2,0-5.7,1-7.7,3c-2,2-3,4.6-3,7.8c0,3.1,1,5.7,3.1,7.8
		c2.1,2.1,4.6,3.2,7.7,3.2c2,0,3.8-0.4,5.2-1.3v-4.9c0-1-0.3-1.6-1-1.9c-0.3-0.1-1.1-0.2-2.3-0.3v-0.8c1.6,0.1,3,0.1,4.1,0.2
		c0.9,0.1,1.3,0.1,1.1,0.1c0.1,0,0.6,0,1.6-0.1c1.2-0.1,2.4-0.1,3.6-0.2V212.1z"/>
	<path class="st2" d="M325.4,216.1c-1,1.5-1.5,3.2-1.7,5c-1.1,0-2.6,0-4.4-0.1c-1.8,0-3.1-0.1-3.7-0.1l-4.3-0.1
		c-2-0.1-4.3,0-6.9,0.1v-0.8c1.2,0,2-0.1,2.4-0.4c0.6-0.4,0.9-1.1,0.9-2.2v-15.9c0-1.1-0.3-1.8-0.9-2.2c-0.4-0.3-1.2-0.4-2.4-0.4
		v-0.8c2.6,0.2,4.9,0.2,6.9,0.1h4.3c0.7,0,1.9,0,3.7-0.1c1.8-0.1,3.3-0.1,4.4-0.1c0.1,1.9,0.7,3.5,1.7,4.8l-1,0.3
		c-0.7-1.6-1.7-2.8-3.1-3.4c-1-0.4-2.6-0.6-4.6-0.6c-1.9,0-3.2,0.1-3.7,0.3c-1.1,0.4-1.7,1.4-1.7,3v5.8h4.7l1-1
		c0.1-0.1,0.1-0.1,0.1-0.1c0,0,0.1,0.1,0.1,0.1l1.5,1.5c0.1,0.1,0.1,0.1,0.1,0.1c0,0-0.1,0.1-0.1,0.1l-1.5,1.5l-0.3,0l-1-1h-4.7v6.9
		c0,1.6,0.6,2.5,1.7,2.9c0.5,0.2,1.7,0.3,3.7,0.3c2.1,0,3.7-0.2,4.6-0.6c1.4-0.6,2.4-1.7,3.1-3.4L325.4,216.1z"/>
	<path class="st2" d="M346.3,216l-1.4,5.1l-12-0.3c-0.6,0-3,0.1-7.5,0.3l-0.1-1c1.5,0,2.5-0.2,2.9-0.7c0.5-0.4,0.7-1.4,0.7-2.8
		v-15.5c0-1-0.3-1.6-1-2c-0.4-0.2-1.1-0.3-2.3-0.4v-0.7c0.6,0,1.6,0.1,3,0.1c1.3,0.1,2.3,0.1,3,0.1c0.5,0,1.2-0.1,2.1-0.1
		c1-0.1,1.7-0.1,2.1-0.1v0.7c-1.4,0.1-2.2,0.3-2.7,0.8c-0.4,0.5-0.6,1.4-0.6,2.8v13.8c0,1.5,0.4,2.4,1.3,2.9
		c0.6,0.4,1.8,0.5,3.4,0.5c2.4,0,4.1-0.2,5-0.5c1.6-0.5,2.7-1.7,3.2-3.6L346.3,216z"/>
	<path class="st2" d="M357.3,221.1c-0.5,0-1.3,0-2.3-0.1s-1.9-0.1-2.4-0.1c-0.6,0-1.5,0-2.7,0.1c-1.2,0.1-2.2,0.1-2.8,0.1v-0.8
		c1.1,0,1.9-0.1,2.4-0.4c0.6-0.4,0.9-1.1,0.9-2.2v-16.4c0-1-0.3-1.7-1-2c-0.4-0.2-1.1-0.3-2.3-0.4v-0.7c2.2,0.1,3.9,0.1,5.1,0.1
		c1.1,0,2.8,0,5.2-0.1v0.7c-1.3,0.1-2.2,0.4-2.7,0.8c-0.4,0.5-0.7,1.4-0.7,2.8v13.9c0,1.5,0.2,2.5,0.5,3c0.4,0.6,1.4,0.9,2.8,0.9
		V221.1z"/>
	<path class="st2" d="M382.6,215.1l-1,4.8c-2.7,1.1-5.5,1.7-8.7,1.7c-3.8,0-7.1-1-9.8-3c-3-2.2-4.4-5.1-4.4-8.9
		c0-3.7,1.5-6.6,4.6-8.9c2.8-2,6.1-3.1,10-3.1c2.7,0,5.6,0.6,8.7,1.7c0.2,1.6,0.3,3.2,0.4,4.8h-0.8c-1-3.5-3.6-5.3-7.9-5.3
		c-3,0-5.6,0.9-7.7,2.7c-2.2,1.9-3.2,4.3-3.2,7.3c0,3.1,1.1,5.8,3.2,8.1c2.2,2.3,4.8,3.5,8,3.5c1.9,0,3.6-0.5,4.9-1.4
		c1.5-1,2.4-2.4,2.8-4.2L382.6,215.1z"/>
	<path class="st2" d="M408.6,221.1c-2-0.2-3.6-0.3-4.8-0.3c-1,0-2.6,0.1-4.8,0.3v-0.8c1.7-0.1,2.5-0.6,2.5-1.4
		c0-0.4-0.2-0.9-0.5-1.5l-1.8-5.1h-8.7l-1.5,4c-0.3,0.9-0.5,1.6-0.5,2.1c0,1.2,1.1,1.9,3.4,1.9v0.8c-2.6-0.2-4.2-0.3-4.8-0.3
		c-0.7,0-2.1,0.1-4.2,0.3v-0.8c1.2,0,2-0.3,2.7-1c0.5-0.5,1-1.4,1.5-2.7l6.1-16c-0.3-0.9-1.3-1.4-3-1.5v-0.8
		c1.4,0.2,3.3,0.3,5.7,0.3c2.8,0,4.6-0.1,5.5-0.3v0.8c-1.8,0-2.9,0.6-3.2,1.8l6.8,17c0.4,0.9,0.8,1.5,1.4,1.9
		c0.5,0.3,1.3,0.5,2.3,0.6V221.1z M398.6,210.9l-4-10l-3.6,10H398.6z"/>
	<path class="st2" d="M359.6,153.6c-3-1.6-7.3-2.1-11.2-1.3c-3.9-0.8-8.2-0.3-11.2,1.3c-0.3,0.2-0.3,0.5,0.1,0.7
		c0.2,0.1,0.4,0.1,0.6,0c3-0.9,7.3-0.9,10.5,0c3.2-0.9,7.3-0.9,10.3,0c0.2,0.1,0.4,0.1,0.6,0C359.9,154.2,359.9,153.8,359.6,153.6"
		/>
	<path class="st2" d="M348.4,183.5c-0.3-1.7-0.5-3.5-0.5-5.4l0-23.6c-1.1-0.3-2.4-0.5-3.8-0.5l1.6,33.1c0.1,2.5,1,4.9,2.6,7.2V183.5
		z"/>
	<path class="st2" d="M348.9,178.1c0,1.9-0.2,3.7-0.5,5.4v10.8c1.6-2.3,2.5-4.7,2.6-7.2l1.6-33.1c-1.3,0.1-2.6,0.3-3.8,0.6
		L348.9,178.1z"/>
	<rect x="345.4" y="144.5" class="st2" width="6.1" height="8.7"/>
	<polygon class="st2" points="342.8,143.6 348.4,140.2 354,143.6 348.4,146.9 	"/>
	<path class="st2" d="M222.2,184.6c-0.3-1.5-1-2.6-2.1-3.4c0.1-0.4,0.3-0.7,0.4-1.1c0.5-1.7-0.4-3.4-1.8-3.7
		c-0.6-0.1-1.2,0.3-1.5,0.9c-0.2,0.6,0,1.4,0.5,1.8c0.3,0.2,0.6,0.5,0.9,0.1c0.3-0.4-0.1-0.6-0.4-0.8c0,0-0.1,0-0.1-0.1
		c-0.1-0.2-0.2-0.5-0.2-0.6c0.1-0.2,0.3-0.4,0.5-0.4c0.5,0,1.1,0.7,1.2,1.4c0.1,0.8-0.2,1.9-0.6,2.1c-0.6,0.2-1.2,0.4-1.7,0.2
		c-1.1-0.3-2-1.1-2.4-2.4c-0.6-2.1-0.3-4.2,0.7-6.1c0.3-0.6,0.8-0.9,1.4-0.9c0.5,0,1,0.4,1.1,1c0.1,0.6-0.1,1.2-0.6,1.4
		c-0.5,0.2-0.9,0-1.2-0.6c-0.1-0.2-0.4-0.2-0.5-0.3c0,0.3-0.1,0.6-0.1,0.8c0.2,0.7,1,1.2,1.7,1c0.7-0.1,1.3-0.8,1.4-1.6
		c0.2-1.8-1.1-3.1-2.5-2.6c-0.9,0.3-1.5,1.1-1.9,2.1c-0.2,0.5-0.3,1-0.5,1.5c-0.2-1.2-0.1-2.4-0.2-3.6c-0.1-1.6-0.1-3.3-0.3-4.9
		c-0.1-0.7-0.1-1.2,0.4-1.7c0.9-1.1,1.1-2.5,1.1-3.9c0-0.9-0.5-1.2-1.1-0.7c-0.6,0.4-0.9,1.1-1.1,1.8c-0.1,0.3-0.2,0.7-0.4,1.1
		c-1.1-1.4-2.4-2.2-3.9-2.6c-2-0.5-3.4,0.4-4.1,2.6c-0.1,0.2-0.1,0.3-0.1,0.4c-1.3-0.8-2.5-1.5-3.8-2.4c0-0.7,0.1-1.5,0.1-2.4
		c1.1-1.2,1.5-1.8,1.7-3c0.1-0.5,0.1-1,0.1-1.5c-0.1-0.7-0.6-0.9-1-0.4c-0.2,0.2-0.4,0.5-0.5,0.7c-0.3,0.5-0.5,1-0.8,1.7
		c-1.2-3-2.8-4.9-5.7-4.7c-0.2-0.7-0.4-1.4-0.7-2c-0.3-0.6-0.6-1.2-1-1.7c-0.5-0.7-1-0.5-1.1,0.3c-0.2,1.2-0.2,2.4,0.6,3.3
		c0.2,0.2,0.3,0.4,0.5,0.6c-0.4,0.4-0.8,0.8-1.2,1.2c-0.1,0.1-0.3,0.3-0.5,0.3c-2.1,0.3-4.2-1.4-4.8-3.9c-0.3-1.4,0.4-3.5,1.5-4.2
		c0.6-0.5,1.3-0.5,1.9,0c0.4,0.4,0.7,1.5,0.5,2.2c-0.1,0.4-0.3,0.7-0.7,0.8c-0.4,0-0.6-0.2-0.7-0.7c0-0.5-0.2-0.7-0.6-0.5
		c-0.3,0.2-0.3,0.5-0.2,0.9c0.2,0.7,0.7,1.1,1.3,1.2c0.6,0.1,1-0.2,1.4-0.7c0.5-0.9,0.4-2.4-0.2-3.3c-0.5-0.9-1.5-1.3-2.5-0.9
		c-1.2,0.4-1.8,1.6-2.3,2.8c-0.1,0.3-0.2,0.6-0.4,1c-0.3-1.3-0.8-2.3-1.5-3.1c-0.9-1-2.1-1.1-3-0.4c-0.8,0.6-1.2,2.2-0.9,3.4
		c0.2,0.7,0.6,1.1,1.2,1.3c0.8,0.2,1.7-0.6,1.7-1.4c0-0.2-0.2-0.4-0.3-0.6c-0.2,0.1-0.3,0.3-0.5,0.4c-0.1,0.1,0,0.2-0.1,0.3
		c-0.3,0.6-0.9,0.6-1.2,0c-0.3-0.6-0.2-1.7,0.2-2.2c0.4-0.6,1-0.8,1.6-0.5c0.4,0.2,0.7,0.4,1,0.8c1.5,2.1,1.4,4.2-0.6,6.4
		c-1,1-2.2,1.2-3.4,1.1c-0.6-0.5-1.1-1-1.7-1.5c0.2-0.2,0.3-0.3,0.5-0.5c0.8-0.9,0.9-2,0.7-3.2c-0.1-0.3-0.3-0.8-0.5-0.9
		c-0.4-0.2-0.6,0.2-0.8,0.5c-0.7,1.1-1.4,2.1-1.4,3.6c-3-0.3-4.7,1.7-5.8,4.7c-0.2-0.5-0.3-0.8-0.5-1.1c-0.2-0.4-0.4-0.9-0.7-1.3
		c-0.2-0.2-0.5-0.4-0.8-0.3c-0.1,0-0.2,0.5-0.3,0.7c0,0.1,0,0.2,0,0.4c0,1.7,0.7,3,1.9,4v2.6c-0.6,0.3-1.3,0.5-1.9,0.9
		c-0.6,0.4-1.2,0.9-1.9,1.4c-0.1-0.4-0.2-0.7-0.4-1.1c-0.6-1.5-1.6-2.3-3-2.1c-0.8,0.1-1.6,0.3-2.4,0.7c-0.9,0.5-1.6,1.2-2.4,1.8
		c-0.1-0.4-0.2-0.8-0.3-1.3c-0.2-0.7-0.6-1.3-1.1-1.6c-0.5-0.3-0.9-0.1-1,0.6c-0.1,1.5,0.2,2.9,1,4.1c0.2,0.3,0.4,0.5,0.6,0.8
		c-0.7,3.1-0.2,6.2-0.6,9.3c-0.2-0.4-0.3-0.8-0.5-1.2c-0.3-0.6-0.6-1.2-0.9-1.6c-0.9-1.1-2.3-1-3.1,0.1c-0.6,0.9-0.6,2.2,0.2,3
		c0.7,0.7,1.7,0.7,2.3-0.1c0.4-0.5,0.5-1,0.2-1.2c-0.5-0.3-0.5,0.2-0.7,0.5c-0.3,0.4-0.6,0.5-1.1,0.3c-0.4-0.2-0.6-0.7-0.5-1.3
		c0.1-0.6,0.5-1,1-1.1c0.7-0.1,1.2,0.3,1.5,0.9c0.8,1.5,1.1,3.2,0.9,5c-0.1,0.6-0.3,1.1-0.5,1.6c-0.4,0.9-1.1,1.3-1.8,1.7
		c-0.7,0.4-1.3-0.3-2-0.1c-0.1,0-0.2-0.1-0.2-0.2c-0.7-0.8-0.6-2.4,0.2-3c0.3-0.2,0.7-0.6,1.1-0.1c0.3,0.5-0.1,0.7-0.3,1
		c-0.1,0.1-0.1,0.5-0.2,0.7c0.2,0,0.4,0.1,0.5,0.1c0.7-0.3,1-1.1,0.8-1.9c-0.2-0.7-0.8-1.1-1.5-1c-1.3,0.4-2.1,1.9-1.7,3.5
		c0.1,0.4,0.3,0.8,0.4,1.2c-1.4,0.9-2,2.3-2.3,4.1c0,0.4,0,0.8,0,1.2c0.1,0.5,0.4,0.7,0.8,0.4c0.3-0.1,0.5-0.4,0.7-0.5
		c0,0.1,0,0.1,0,0.2c-0.1,0.3-0.1,0.6-0.2,0.9c-0.6,2.4,0,4.2,1.8,5.5c0.1,0.1,0.2,0.2,0.3,0.3c2.5,1.9,5.1,3.2,8,4.2
		c0.4,0.1,0.8,0.1,1.2,0.2c0.1,0,0.3-0.2,0.3-0.3c0-0.1-0.1-0.4-0.2-0.5c-0.2-0.1-0.5-0.2-0.7-0.3c-2.1-1-4.2-1.9-6.3-3
		c-1.2-0.6-2.2-1.4-3.1-2.5c-0.7-0.9-0.9-1.6-0.3-2.7c0.5-1,1.2-2,1.9-2.9c2.5-2.9,5.5-4.8,8.7-6.2c5.6-2.3,11.5-3.3,17.4-3.7
		c1.3-0.1,2.6-0.3,4-0.3c1.3,0,2.5-0.4,3.8-0.2c2.3,0.4,4.6,0.5,6.9,0.6c4.6,0.4,9.2,1.3,13.7,2.8c4,1.3,7.7,3.4,10.7,6.8
		c0.8,0.9,1.4,1.9,2,2.9c0.6,1,0.4,2-0.3,2.8c-0.7,0.7-1.4,1.4-2.2,2c-2.3,1.6-4.7,2.7-7.2,3.6c-0.3,0.1-0.6,0.3-0.9,0.5
		c0,0.1,0,0.3,0,0.4c0.2,0.1,0.5,0.2,0.7,0.2c0.4,0,0.8-0.1,1.2-0.3c2.4-0.8,4.7-2,6.8-3.5c0.7-0.5,1.4-1.1,2-1.7
		c0.9-0.9,1.4-2.1,1.1-3.6c-0.2-0.7-0.2-1.4-0.3-2.2c0.3,0.2,0.5,0.4,0.7,0.6c0.5,0.3,0.9,0.1,0.9-0.6
		C222.4,185.7,222.3,185.1,222.2,184.6 M201.6,154.7c0.1,0.1,0.2,0.1,0.2,0.2c-0.2,0.6-0.4,1.2-0.6,1.7
		C201,155.8,201.4,155.2,201.6,154.7 M169.1,154.8c0.1,0,0.1-0.1,0.2-0.1c0.2,0.6,0.4,1.1,0.7,1.7
		C169.4,156,169.2,155.4,169.1,154.8 M149.3,185.8c0.2-2.5,1.4-4.1,2.8-3.7C151.4,183.7,150.4,184.7,149.3,185.8 M214.2,160.7
		c0.2,1.1-0.1,2-0.8,3C213.3,162.4,213.6,161.5,214.2,160.7 M192.5,148.3c0.5,0.7,0.9,1.4,1,2.3
		C192.5,150.1,192.3,149.6,192.5,148.3 M194.3,152c1.9-0.3,3.3,0.5,4.4,2.4c0.7,1.2,1.1,2.6,1.2,4.2c-0.3-0.2-0.5-0.4-0.7-0.6
		c-0.4-0.2-0.8-0.5-1.2-0.6c-0.3-0.1-0.7,0.1-0.9,0.3c-0.3,0.3-0.1,0.8,0.1,1c0.4,0.5,0.8,0.9,1.3,1.3c0.1,0.1,0.3,0.3,0.5,0.4
		c-1,0.2-1.9,0.3-2.8,0.7c-0.9,0.3-1.6,1-2.1,2.1c-0.6-1.2-1.1-2.3-1.6-3.5c0.3,0,0.5-0.1,0.8-0.1c1.5-0.1,2.8-2,2.5-3.7
		c-0.2-1.2-1.1-1.9-2-1.5c-0.5,0.2-0.6,0.4-0.4,1.2c0.2-0.1,0.4-0.2,0.6-0.3c0.5-0.2,0.9,0.1,1,0.8c0.1,1.2-0.7,2.5-1.7,2.6
		c-1.1,0.1-2.2-0.9-2.2-2.2C191.1,154.1,192.3,152.3,194.3,152 M199,159c0,0.1-0.1,0.1-0.1,0.1c-0.2-0.2-0.4-0.3-0.6-0.5
		c0-0.1,0.1-0.1,0.1-0.2C198.6,158.7,198.8,158.8,199,159 M190.6,153.9c-0.1,1.2-0.3,2.4-0.4,3.6c-1.5-1.6-3.2-3.1-3.7-5.7
		C187.7,153.2,189,153.8,190.6,153.9 M185.3,152c1.2,2.1,1.3,5.8,0,7.9C184,157.2,184.6,154.6,185.3,152 M184.3,151.8
		c-0.6,2.5-2.1,4.1-3.7,5.7c-0.2-1.2-0.3-2.3-0.4-3.6C181.8,153.8,183.2,153.2,184.3,151.8 M178.3,148.4c0.2,1-0.2,1.8-1,2.3
		C177.3,149.6,177.9,149,178.3,148.4 M171.1,157.1c0.4-1.7,1-3.2,2.2-4.2c1.2-1.1,2.6-1.2,4-0.7c1.9,0.7,2.5,2.8,2.4,4.6
		c-0.1,1.2-1.2,2.1-2.2,1.9c-1-0.2-1.8-1.7-1.6-2.7c0.1-0.5,0.5-0.8,0.9-0.6c0.2,0.1,0.3,0.2,0.4,0.3c0.3,0.1,0.5-0.3,0.4-0.6
		c-0.1-0.2-0.3-0.5-0.6-0.6c-0.9-0.4-1.9,0.4-2,1.7c-0.1,1.9,1.3,3.8,2.7,3.5c0.2,0,0.4,0,0.6,0c-0.6,1.2-1.1,2.3-1.6,3.4
		c-0.5-0.9-1.2-1.7-2.2-2c-0.9-0.3-1.8-0.4-2.7-0.6c0.4-0.4,0.9-0.8,1.4-1.3c0.3-0.4,0.7-0.8,0.5-1.4c-0.2-0.5-0.6-0.5-1.3-0.2
		c-0.2,0.1-0.5,0.3-0.7,0.4c-0.2,0.2-0.4,0.4-0.8,0.7C171,158,171,157.5,171.1,157.1 M156.6,160.5c0.7,1,0.8,2,0.8,3
		C156.7,162.8,156.5,161.8,156.6,160.5 M162.6,175.8c-0.6,0.1-1.2,0.5-1.8,0.9c-1.1,0.8-2.3,1.3-3.7,2c0.7-3.6,0.6-7.1,0.6-10.6
		c0-1.5,0.3-2.9,0.8-4.2c0.2-0.5,0.6-1.1,1-1.5c1-1,2.1-1.6,3.4-1.7c0.9-0.1,1.7,0.2,2.1,1.1c0.5,0.9,0.9,1.9,0.3,3.1
		c-0.1,0.2-0.2,0.3-0.2,0.5c-0.2,0.7-0.5,1.2-1.2,1.2c-0.7,0-1.5-0.7-1.7-1.4c-0.2-0.9-0.1-1.8,0.6-2.4c0.2-0.2,0.5-0.4,0.3-0.7
		c-0.2-0.4-0.5-0.2-0.8,0c-0.8,0.6-1.2,2.3-0.8,3.5c0.1,0.3,0.3,0.6,0.4,1c-0.3,0.1-0.6,0.2-0.9,0.4c-1.7,0.7-2.6,2.3-2.4,4.2
		c0.1,1.5,0.8,2.4,2,2.6c1.2,0.3,2.7-0.5,3.1-1.7c0.3-0.9,0.1-1.8-0.7-2.2c-0.8-0.4-1.7,0-2,0.9c-0.1,0.2,0.1,0.4,0.1,0.6
		c0.2,0,0.4,0,0.5-0.1c0.1-0.1,0.2-0.3,0.3-0.4c0.3-0.3,0.6-0.2,0.9,0.1c0.3,0.3,0.2,0.6,0.1,0.9c-0.4,0.8-1.5,1.3-2.4,1
		c-0.8-0.2-1.3-1.1-1.2-2.1c0-0.6,0.2-1.3,0.5-1.7c0.8-1.3,3-2.1,4.5-0.8c1.5,1.4,1.9,3.7,0.7,5.4
		C164.5,174.7,163.7,175.5,162.6,175.8 M165.8,174.7c0.4-1,0.7-2,1.1-3c1.5,0.5,3.1,1.1,4.7,1.6
		C169.5,173.7,167.6,174.2,165.8,174.7 M168.1,166.7c0.5,1.4,0.4,2.1-0.1,3C167.6,168.7,167.7,167.8,168.1,166.7 M168.6,171
		c0.4-1.2,0.6-2.3,0.5-3.5c0-0.5-0.1-0.9-0.3-1.3c-0.4-0.8-1.1-0.8-1.4,0.1c-0.3,0.9-0.6,1.8-0.4,2.9c0,0.2,0,0.4,0.1,0.6
		c-1-0.7-1.4-2.1-1.1-3.3c0.3-1.4,0.9-2.5,2-3.3c1.9-1.5,4-2.1,6.3-1.3c0.5,0.2,1,0.5,1.4,0.9c1.4,1.5,1.2,3.9-0.4,5.1
		c-0.9,0.6-1.9,0.8-2.9,0.3c-0.9-0.5-1.3-1.5-1-2.5c0.3-0.8,0.6-1,1.3-0.5c0.1,0.1,0.2,0.1,0.4,0.2c0.2-0.7,0-1.1-0.4-1.5
		c-0.4-0.4-0.9-0.3-1.3,0c-0.8,0.7-1.1,1.6-1,2.8c0.1,1.2,0.7,2,1.6,2.4c0.8,0.4,1.7,0.3,2.7,0.1c-0.2,1.7,0.5,2.7,1.8,3.5
		C173.6,172.4,171.1,172.1,168.6,171 M175.4,170.4c-0.2-0.6-0.1-1,0.2-1.4c0.4-0.3,0.6-0.3,1.2,0.3c-0.1,0.2-0.3,0.4-0.4,0.6
		c-0.1,0.1-0.1,0.4,0,0.5s0.3,0.2,0.4,0.1c0.8-0.3,1-1.2,0.5-2c-0.2-0.2-0.4-0.4-0.5-0.7c0.8,0.1,1.4,0.8,1.5,1.8
		c0.1,0.9-0.4,1.6-1.1,1.8C176.5,171.7,175.7,171.2,175.4,170.4 M177.9,172.6c0-0.1,0-0.1-0.1-0.2c0.3-0.4,0.8-0.8,1-1.3
		c0.2-0.5,0.3-1.2,0.4-1.9c1.1,0.6,2.2,1.3,3.4,2c0,0.1,0,0.2,0,0.2C181,171.9,179.5,172.3,177.9,172.6 M182.3,169.8
		c-1-0.6-2-1.1-2.9-1.8c-1.8-1.4-2.2-3.4-1.3-5.7c0.5-1.3,1.4-2.2,2.2-3.2c1-1.2,2.1-2.3,3.2-3.4c0.1-0.1,0.2-0.1,0.3-0.2
		c0.1,1.1,0.1,2.1,0.2,3.3c-0.8,0.4-1.6,1-2.3,1.9c-2.2,2.5-1.6,5.9,0.3,7.9c0.7,0.7,1.3,1.3,1.9,2.1
		C183.3,170.4,182.8,170.1,182.3,169.8 M185.6,171.9c-0.3-0.3-0.5-0.4-0.5-0.6c0-0.9-0.5-1.4-1-1.9c-0.5-0.5-1-1-1.5-1.5
		c-1.9-1.9-2-4.6-0.2-6.7c0.5-0.5,1-0.9,1.5-1.4c1,0.8,1.3,2.6,0.8,3.6c-0.2,0.3-0.5,0.6-0.7,0.7c-0.1,0.1-0.5-0.1-0.6-0.3
		c-0.1-0.2,0-0.5,0.1-0.7c0-0.1,0.2-0.2,0.3-0.2c0.3-0.1,0.5-0.4,0.3-0.7c-0.1-0.1-0.4-0.2-0.6-0.1c-0.6,0.2-0.9,0.6-1,1.3
		c-0.1,0.6,0.1,1.2,0.6,1.5c0.5,0.4,1,0.3,1.5-0.1c0.3-0.2,0.5-0.6,0.8-0.9c0.3,0.3,0.5,0.6,0.8,0.9c0.5,0.4,1.1,0.5,1.6,0.1
		c0.5-0.4,0.5-1,0.5-1.7c0-0.7-0.5-1-1-1.1c-0.1,0-0.3,0-0.4,0.1c-0.1,0-0.1,0-0.2,0.1c0,0.1,0,0.1,0.1,0.2c0.1,0.2,0.1,0.3,0.2,0.5
		c0.1,0.1,0.3,0.1,0.3,0.2c0.1,0.2,0.2,0.6,0.2,0.7c-0.1,0.2-0.4,0.4-0.6,0.3c-0.5-0.1-0.8-0.7-0.9-1.3c-0.2-1.1,0-2.2,0.8-3.1
		c1.3,0.8,2.4,1.8,2.9,3.5c0.5,1.8-0.2,3.3-1.3,4.5c-0.5,0.5-1,1-1.5,1.4C186.2,169.9,185.7,170.6,185.6,171.9 M187.1,170.4
		c0.2-0.2,0.3-0.5,0.5-0.7c0.5-0.5,1-0.9,1.4-1.3c1.9-2.1,2.2-5.4,0.1-7.7c-0.7-0.8-1.4-1.5-2.4-1.8c0.1-1.2,0.2-2.2,0.3-3.2
		c0.1,0,0.2,0,0.2,0.1c1.3,1.3,2.5,2.7,3.8,4c1,1.1,1.8,2.3,2,3.9c0.2,1.3,0,2.3-0.7,3.3c-0.3,0.4-0.7,0.9-1.1,1.1
		c-1.3,0.9-2.7,1.7-4,2.5C187.2,170.5,187.2,170.4,187.1,170.4 M188.2,171.3c1.2-0.7,2.3-1.3,3.4-2c0.3,1.9,0.4,2,1.5,3
		C192.1,172.6,189.8,172.1,188.2,171.3 M192.6,170.6c-0.3-0.7-0.1-1.4,0.3-1.9c0.4-0.6,0.9-0.9,1.7-1c-0.4,0.3-0.8,0.6-1,0.9
		c-0.6,0.7-0.4,1.6,0.4,2c0.1,0.1,0.4,0.1,0.4,0c0.1-0.2,0.1-0.4,0.1-0.6c-0.1-0.2-0.3-0.3-0.4-0.5c0.3-0.6,0.6-0.7,1.1-0.5
		c0.4,0.3,0.6,0.8,0.4,1.4c-0.2,0.7-0.8,1.2-1.5,1.2C193.4,171.6,192.9,171.2,192.6,170.6 M196.3,169.2c0.7,0,1.3,0.1,1.8,0.1
		c1-0.1,1.8-0.6,2.2-1.7c0.4-1,0.3-2.1-0.2-3c-0.2-0.3-0.5-0.7-0.8-0.8c-0.9-0.5-1.6,0.3-1.4,1.5c0.1-0.1,0.3-0.1,0.4-0.1
		c0.7-0.4,1.2-0.2,1.4,0.7c0.2,0.9-0.2,1.9-1,2.3c-1.8,0.9-4.1-0.6-4.3-2.6c-0.1-1.4,0.5-2.8,1.8-3.5c1.1-0.6,2.3-0.6,3.4-0.4
		c1.3,0.2,2.5,0.8,3.6,1.8c1,0.8,1.5,2,1.7,3.3c0.2,1.2-0.2,2.2-1.1,3.2c0-0.5,0-0.8,0-1.1c-0.1-0.8-0.2-1.6-0.4-2.4
		c-0.1-0.3-0.4-0.7-0.7-0.7c-0.3,0-0.6,0.3-0.8,0.6c-0.4,0.8-0.4,1.8-0.3,2.7c0.1,0.6,0.3,1.3,0.5,2c-2.4,1.1-5,1.4-7.8,1.6
		C195.8,171.9,196.4,170.8,196.3,169.2 M202.8,169.9c-0.5-1.2-0.5-2.1-0.2-3.3C203.2,167.7,203.1,168.7,202.8,169.9 M199.3,173.2
		c1.6-0.6,3.2-1.1,4.7-1.6c0.3,1,0.7,2,1,3C203.2,174.2,201.2,173.7,199.3,173.2 M212.7,178.2c-1.5-0.7-2.8-1.9-4.4-2.4
		c-1.1-0.3-1.9-1-2.6-2c-0.9-1.2-1-2.7-0.4-4.1c0.8-1.6,1.9-2.3,3.3-2.1c1.5,0.3,2.4,1.3,2.7,2.7c0.2,1-0.3,2.1-1,2.5
		c-0.9,0.4-2.2,0-2.6-0.8c-0.2-0.4-0.3-0.7,0.1-1c0.3-0.3,0.6-0.3,0.9,0c0,0.1,0.1,0.1,0.1,0.2c0.2,0.2,0.3,0.6,0.6,0.3
		c0.4-0.3,0.1-0.7-0.1-1c-0.4-0.7-1.3-0.8-2-0.4c-0.6,0.5-0.8,1.3-0.5,2.2c0.5,1.3,2.2,2,3.5,1.5c1.1-0.4,1.8-1.6,1.7-3.4
		c-0.1-1.8-1.1-2.8-2.4-3.4c-0.3-0.1-0.6-0.2-1-0.4c0.7-1.2,0.8-2.4,0.3-3.6c-0.2-0.4-0.5-0.7-0.8-1c-0.1-0.1-0.4,0.1-0.6,0.1
		c0.1,0.2,0.1,0.5,0.2,0.7c0.1,0.1,0.2,0.2,0.3,0.3c0.5,0.6,0.6,1.6,0.4,2.3c-0.3,0.8-1.1,1.4-1.7,1.3c-0.2,0-0.5-0.2-0.7-0.4
		c-0.8-0.8-1-2.8-0.5-3.9c0.6-1.4,1.4-1.9,2.8-1.6c0.9,0.3,1.8,0.7,2.6,1.2c1.3,0.9,1.8,2.5,2.1,4.1c0.2,0.9,0.2,1.9,0.2,2.8
		c0.1,2.4,0.1,4.8,0.2,7.2c0,0.8,0.2,1.6,0.3,2.6C213.3,178.5,213,178.3,212.7,178.2 M218.7,182c0.3,0,0.6-0.1,0.8,0
		c1.2,0.4,1.9,1.8,2,3.7C220.4,184.7,219.4,183.6,218.7,182"/>
</g>
</svg>
